<?xml version="1.0" encoding="utf-8"?>
<!-- Generator: Adobe Illustrator 19.2.0, SVG Export Plug-In . SVG Version: 6.00 Build 0)  -->
<svg version="1.1" id="Layer_1" xmlns="http://www.w3.org/2000/svg" xmlns:xlink="http://www.w3.org/1999/xlink" x="0px" y="0px"
	 width="312px" height="49.5px" viewBox="0 0 312 49.5" enable-background="new 0 0 312 49.5" xml:space="preserve">
<g>
	<path fill-rule="evenodd" clip-rule="evenodd" fill="#FFFFFF" d="M79.4,22h-3.2l-0.4,0.9c-0.1,0.3-0.2,0.5-0.2,0.7
		c0,0.3,0.1,0.4,0.3,0.6c0.1,0.1,0.4,0.1,0.9,0.2v0.2h-3v-0.2c0.3,0,0.6-0.2,0.8-0.4c0.2-0.2,0.5-0.7,0.8-1.4l3.3-7.3h0.1l3.3,7.5
		c0.3,0.7,0.6,1.2,0.8,1.3c0.2,0.1,0.4,0.2,0.6,0.2v0.2H79v-0.2h0.2c0.4,0,0.6,0,0.7-0.1c0.1-0.1,0.1-0.2,0.1-0.3c0-0.1,0-0.2,0-0.2
		c0,0-0.1-0.2-0.2-0.5L79.4,22L79.4,22z M79.2,21.5l-1.4-3.2l-1.4,3.2H79.2L79.2,21.5z"/>
	<path fill="#FFFFFF" d="M89.1,18.3v4.9c0,0.5,0,0.8,0.1,0.9c0.1,0.1,0.3,0.2,0.5,0.2v0.2h-2.6v-0.8c-0.3,0.4-0.6,0.6-0.9,0.8
		c-0.3,0.2-0.6,0.2-1,0.2c-0.4,0-0.7-0.1-1-0.3c-0.3-0.2-0.5-0.5-0.6-0.8c-0.1-0.3-0.1-0.8-0.1-1.5v-2.5c0-0.5,0-0.8-0.1-0.9
		c-0.1-0.1-0.3-0.2-0.5-0.2v-0.3h2.6v4.3c0,0.5,0,0.7,0.1,0.9c0,0.1,0.1,0.2,0.2,0.3c0.1,0.1,0.2,0.1,0.3,0.1c0.2,0,0.3,0,0.4-0.1
		c0.2-0.1,0.4-0.4,0.6-0.7v-3.4c0-0.5,0-0.8-0.1-0.9c-0.1-0.1-0.3-0.2-0.5-0.2v-0.3H89.1L89.1,18.3z"/>
	<path fill="#FFFFFF" d="M94.2,18.1l0.1,2.2h-0.2c-0.3-0.6-0.6-1.1-0.9-1.3c-0.3-0.2-0.6-0.4-0.9-0.4c-0.2,0-0.3,0.1-0.5,0.2
		c-0.1,0.1-0.2,0.3-0.2,0.4c0,0.1,0,0.2,0.1,0.4c0.1,0.2,0.5,0.5,1.2,1c0.7,0.4,1.1,0.8,1.3,1.1c0.2,0.3,0.3,0.7,0.3,1
		c0,0.4-0.1,0.7-0.3,1c-0.2,0.3-0.4,0.6-0.7,0.8c-0.3,0.2-0.7,0.3-1.1,0.3c-0.3,0-0.7-0.1-1.2-0.3c-0.1,0-0.2-0.1-0.3-0.1
		c-0.1,0-0.3,0.1-0.4,0.3h-0.2l-0.1-2.3h0.2c0.2,0.6,0.5,1,0.8,1.3c0.4,0.3,0.7,0.4,1,0.4c0.2,0,0.4-0.1,0.5-0.2
		c0.1-0.1,0.2-0.3,0.2-0.5c0-0.2-0.1-0.4-0.2-0.6c-0.1-0.2-0.4-0.4-0.9-0.7c-0.7-0.5-1.1-0.8-1.3-1.1c-0.3-0.4-0.4-0.8-0.4-1.2
		c0-0.5,0.2-0.9,0.5-1.3c0.3-0.4,0.8-0.6,1.5-0.6c0.3,0,0.7,0.1,1,0.2c0.1,0.1,0.2,0.1,0.3,0.1c0.1,0,0.1,0,0.2,0
		c0,0,0.1-0.1,0.2-0.3H94.2L94.2,18.1z"/>
	<path fill="#FFFFFF" d="M97.5,16v2.3H99V19h-1.5v3.9c0,0.4,0,0.6,0,0.7c0,0.1,0.1,0.2,0.2,0.3c0.1,0.1,0.2,0.1,0.2,0.1
		c0.3,0,0.6-0.2,0.8-0.7l0.2,0.1c-0.4,0.9-1,1.3-1.8,1.3c-0.4,0-0.7-0.1-1-0.3c-0.3-0.2-0.4-0.5-0.5-0.7c0-0.2-0.1-0.6-0.1-1.2V19
		h-0.8v-0.2c0.6-0.4,1-0.8,1.4-1.3c0.4-0.4,0.7-0.9,1-1.5H97.5L97.5,16z"/>
	<path fill="#FFFFFF" d="M102.1,18.3v1.4c0.4-0.7,0.8-1.1,1.1-1.3c0.3-0.2,0.6-0.3,0.9-0.3c0.3,0,0.5,0.1,0.6,0.2
		c0.2,0.2,0.2,0.4,0.2,0.7c0,0.3-0.1,0.5-0.2,0.7c-0.1,0.2-0.3,0.2-0.5,0.2c-0.2,0-0.4-0.1-0.6-0.2c-0.2-0.2-0.3-0.2-0.3-0.3
		c0,0-0.1,0-0.2,0c-0.1,0-0.3,0-0.4,0.1c-0.2,0.2-0.3,0.4-0.4,0.7c-0.1,0.4-0.2,0.9-0.2,1.4v1.5l0,0.4c0,0.3,0,0.4,0,0.5
		c0.1,0.1,0.1,0.2,0.2,0.3c0.1,0.1,0.3,0.1,0.5,0.1v0.2h-3.4v-0.2c0.3,0,0.5-0.1,0.6-0.2c0.1-0.1,0.1-0.5,0.1-1v-3.5
		c0-0.4,0-0.6-0.1-0.7c0-0.1-0.1-0.2-0.2-0.3c-0.1-0.1-0.2-0.1-0.5-0.1v-0.3H102.1L102.1,18.3z"/>
	<path fill-rule="evenodd" clip-rule="evenodd" fill="#FFFFFF" d="M108.4,23.7c-0.8,0.7-1.5,1-2.1,1c-0.4,0-0.7-0.1-0.9-0.4
		c-0.2-0.2-0.4-0.5-0.4-0.9c0-0.5,0.2-0.9,0.6-1.3c0.4-0.4,1.3-0.9,2.7-1.5V20c0-0.5,0-0.8-0.1-0.9c0-0.1-0.1-0.2-0.3-0.3
		c-0.1-0.1-0.3-0.1-0.5-0.1c-0.3,0-0.5,0.1-0.7,0.2c-0.1,0.1-0.2,0.2-0.2,0.3c0,0.1,0.1,0.2,0.2,0.4c0.2,0.2,0.3,0.4,0.3,0.6
		c0,0.2-0.1,0.4-0.2,0.6c-0.2,0.2-0.4,0.2-0.6,0.2c-0.3,0-0.5-0.1-0.7-0.3c-0.2-0.2-0.3-0.4-0.3-0.6c0-0.3,0.1-0.6,0.4-0.9
		c0.3-0.3,0.6-0.5,1.1-0.7c0.5-0.2,0.9-0.2,1.4-0.2c0.6,0,1.1,0.1,1.4,0.4c0.4,0.3,0.6,0.5,0.7,0.8c0.1,0.2,0.1,0.6,0.1,1.3v2.5
		c0,0.3,0,0.5,0,0.5c0,0.1,0.1,0.1,0.1,0.2c0,0,0.1,0.1,0.2,0.1c0.1,0,0.2-0.1,0.4-0.2l0.2,0.2c-0.2,0.3-0.5,0.6-0.7,0.7
		c-0.2,0.1-0.5,0.2-0.8,0.2c-0.4,0-0.6-0.1-0.8-0.2C108.6,24.3,108.5,24,108.4,23.7L108.4,23.7z M108.4,23.2v-2.1
		c-0.5,0.3-0.9,0.7-1.2,1c-0.2,0.2-0.3,0.5-0.3,0.7c0,0.2,0.1,0.4,0.2,0.5c0.1,0.1,0.3,0.2,0.5,0.2
		C107.9,23.6,108.1,23.4,108.4,23.2L108.4,23.2z"/>
	<path fill="#FFFFFF" d="M113.9,15.4v7.8c0,0.4,0.1,0.7,0.2,0.9c0.1,0.1,0.3,0.2,0.6,0.2v0.2h-3.4v-0.2c0.3,0,0.5-0.1,0.6-0.2
		c0.1-0.1,0.1-0.4,0.1-0.8v-6.5c0-0.4-0.1-0.7-0.2-0.8c-0.1-0.1-0.3-0.2-0.6-0.2v-0.3H113.9L113.9,15.4z"/>
	<path fill-rule="evenodd" clip-rule="evenodd" fill="#FFFFFF" d="M116.8,15.2c0.3,0,0.5,0.1,0.7,0.3c0.2,0.2,0.3,0.4,0.3,0.7
		c0,0.3-0.1,0.5-0.3,0.7c-0.2,0.2-0.4,0.3-0.7,0.3c-0.3,0-0.5-0.1-0.7-0.3c-0.2-0.2-0.3-0.4-0.3-0.7c0-0.3,0.1-0.5,0.3-0.7
		C116.3,15.3,116.5,15.2,116.8,15.2L116.8,15.2z M117.7,18.3v5c0,0.4,0.1,0.7,0.2,0.9c0.1,0.1,0.3,0.2,0.6,0.2v0.2h-3.4v-0.2
		c0.3,0,0.5-0.1,0.6-0.2c0.1-0.1,0.1-0.4,0.1-0.8v-3.7c0-0.4-0.1-0.7-0.2-0.9c-0.1-0.1-0.3-0.2-0.6-0.2v-0.3H117.7L117.7,18.3z"/>
	<path fill-rule="evenodd" clip-rule="evenodd" fill="#FFFFFF" d="M122.2,23.7c-0.8,0.7-1.5,1-2.1,1c-0.4,0-0.7-0.1-0.9-0.4
		c-0.2-0.2-0.4-0.5-0.4-0.9c0-0.5,0.2-0.9,0.6-1.3c0.4-0.4,1.3-0.9,2.7-1.5V20c0-0.5,0-0.8-0.1-0.9c0-0.1-0.1-0.2-0.3-0.3
		c-0.1-0.1-0.3-0.1-0.5-0.1c-0.3,0-0.5,0.1-0.7,0.2c-0.1,0.1-0.2,0.2-0.2,0.3c0,0.1,0.1,0.2,0.2,0.4c0.2,0.2,0.3,0.4,0.3,0.6
		c0,0.2-0.1,0.4-0.2,0.6c-0.2,0.2-0.4,0.2-0.6,0.2c-0.3,0-0.5-0.1-0.7-0.3c-0.2-0.2-0.3-0.4-0.3-0.6c0-0.3,0.1-0.6,0.4-0.9
		c0.3-0.3,0.6-0.5,1.1-0.7c0.5-0.2,0.9-0.2,1.4-0.2c0.6,0,1.1,0.1,1.4,0.4c0.4,0.3,0.6,0.5,0.7,0.8c0.1,0.2,0.1,0.6,0.1,1.3v2.5
		c0,0.3,0,0.5,0,0.5c0,0.1,0.1,0.1,0.1,0.2c0,0,0.1,0.1,0.2,0.1c0.1,0,0.2-0.1,0.4-0.2l0.2,0.2c-0.2,0.3-0.5,0.6-0.7,0.7
		c-0.2,0.1-0.5,0.2-0.8,0.2c-0.4,0-0.6-0.1-0.8-0.2C122.4,24.3,122.2,24,122.2,23.7L122.2,23.7z M122.2,23.2v-2.1
		c-0.5,0.3-1,0.7-1.2,1c-0.2,0.2-0.3,0.5-0.3,0.7c0,0.2,0.1,0.4,0.2,0.5c0.1,0.1,0.3,0.2,0.5,0.2C121.6,23.6,121.9,23.4,122.2,23.2
		L122.2,23.2z"/>
	<path fill="#FFFFFF" d="M127.6,18.3v0.8c0.3-0.4,0.6-0.6,0.9-0.8c0.3-0.2,0.6-0.2,1-0.2c0.4,0,0.7,0.1,1,0.3
		c0.3,0.2,0.4,0.5,0.5,0.8c0.1,0.3,0.1,0.7,0.1,1.5v2.5c0,0.5,0,0.8,0.1,0.9c0.1,0.1,0.3,0.2,0.6,0.2v0.2h-3.2v-0.2
		c0.2,0,0.4-0.1,0.5-0.3c0.1-0.1,0.1-0.4,0.1-0.8v-2.8c0-0.5,0-0.8-0.1-1c0-0.1-0.1-0.2-0.2-0.3c-0.1-0.1-0.2-0.1-0.3-0.1
		c-0.4,0-0.7,0.3-1.1,0.8v3.4c0,0.5,0,0.8,0.1,0.9c0.1,0.1,0.3,0.2,0.5,0.2v0.2h-3.2v-0.2c0.3,0,0.5-0.1,0.6-0.3
		c0.1-0.1,0.1-0.4,0.1-0.9v-3.6c0-0.5,0-0.8-0.1-0.9c-0.1-0.1-0.3-0.2-0.5-0.2v-0.3H127.6L127.6,18.3z"/>
	<path fill="#FFFFFF" d="M144.3,15.2v3.2h-0.2c-0.3-0.9-0.8-1.6-1.4-2c-0.6-0.5-1.3-0.7-2-0.7c-0.7,0-1.3,0.2-1.7,0.6
		c-0.5,0.4-0.8,0.9-1,1.6c-0.2,0.7-0.3,1.4-0.3,2.1c0,0.9,0.1,1.6,0.3,2.3c0.2,0.7,0.5,1.1,1,1.5c0.5,0.3,1,0.5,1.6,0.5
		c0.2,0,0.4,0,0.7-0.1c0.2,0,0.5-0.1,0.7-0.2v-1.9c0-0.4,0-0.6-0.1-0.7c-0.1-0.1-0.2-0.2-0.3-0.3c-0.2-0.1-0.3-0.1-0.6-0.1h-0.2
		v-0.2h4.4V21c-0.3,0-0.6,0.1-0.7,0.1c-0.1,0.1-0.2,0.2-0.3,0.3c0,0.1-0.1,0.3-0.1,0.6V24c-0.6,0.3-1.2,0.5-1.8,0.6
		c-0.6,0.1-1.3,0.2-2,0.2c-0.9,0-1.6-0.1-2.2-0.4c-0.6-0.2-1.1-0.5-1.5-0.9c-0.4-0.4-0.8-0.8-1-1.3c-0.3-0.6-0.5-1.3-0.5-2.1
		c0-1.4,0.5-2.5,1.5-3.5c1-0.9,2.2-1.4,3.7-1.4c0.5,0,0.9,0,1.2,0.1c0.2,0,0.5,0.1,1,0.3c0.4,0.2,0.7,0.3,0.8,0.3
		c0.1,0,0.2,0,0.4-0.1c0.1-0.1,0.2-0.3,0.3-0.5H144.3L144.3,15.2z"/>
	<path fill-rule="evenodd" clip-rule="evenodd" fill="#FFFFFF" d="M148.7,18.1c0.5,0,1.1,0.1,1.5,0.4c0.5,0.3,0.8,0.7,1.1,1.2
		c0.2,0.5,0.4,1.1,0.4,1.7c0,0.9-0.2,1.6-0.7,2.2c-0.5,0.7-1.3,1.1-2.3,1.1c-0.9,0-1.7-0.3-2.2-1c-0.5-0.7-0.8-1.4-0.8-2.3
		c0-0.9,0.3-1.7,0.8-2.4C147.1,18.4,147.8,18.1,148.7,18.1L148.7,18.1z M148.7,18.6c-0.2,0-0.4,0.1-0.6,0.3c-0.2,0.2-0.3,0.5-0.3,1
		c0,0.5-0.1,1.2-0.1,2.1c0,0.5,0,0.9,0.1,1.4c0,0.3,0.2,0.6,0.3,0.7c0.2,0.2,0.3,0.2,0.6,0.2c0.2,0,0.4-0.1,0.5-0.2
		c0.2-0.2,0.3-0.4,0.4-0.6c0.1-0.4,0.1-1.3,0.1-2.6c0-0.8,0-1.3-0.1-1.6c-0.1-0.3-0.2-0.5-0.4-0.6C149.1,18.6,148.9,18.6,148.7,18.6
		L148.7,18.6z"/>
	<path fill="#FFFFFF" d="M154.7,24.8l-2.1-4.9c-0.3-0.6-0.5-1-0.6-1.1c-0.1-0.1-0.3-0.2-0.5-0.2v-0.3h3.4v0.3c-0.2,0-0.4,0-0.4,0.1
		c-0.1,0.1-0.2,0.2-0.2,0.4c0,0.2,0.1,0.5,0.3,0.9l1,2.4l0.8-2c0.2-0.6,0.4-1,0.4-1.2c0-0.1-0.1-0.3-0.2-0.3
		c-0.1-0.1-0.3-0.1-0.5-0.1v-0.3h2.1v0.3c-0.2,0-0.4,0.1-0.5,0.2c-0.1,0.1-0.3,0.5-0.6,1.1l-2.1,5H154.7L154.7,24.8z"/>
	<path fill-rule="evenodd" clip-rule="evenodd" fill="#FFFFFF" d="M163.1,21.2h-3.5c0,0.8,0.3,1.5,0.7,2c0.3,0.4,0.7,0.6,1.1,0.6
		c0.3,0,0.5-0.1,0.7-0.2c0.2-0.2,0.5-0.4,0.7-0.8l0.2,0.1c-0.3,0.7-0.7,1.2-1.1,1.5c-0.4,0.3-0.9,0.4-1.4,0.4
		c-0.9,0-1.6-0.4-2.1-1.1c-0.4-0.6-0.6-1.3-0.6-2.2c0-1.1,0.3-1.9,0.9-2.5c0.6-0.6,1.2-0.9,2-0.9c0.6,0,1.2,0.3,1.7,0.8
		C162.8,19.4,163.1,20.2,163.1,21.2L163.1,21.2z M161.4,20.8c0-0.7,0-1.2-0.1-1.5c-0.1-0.3-0.2-0.5-0.4-0.6
		c-0.1-0.1-0.2-0.1-0.4-0.1c-0.2,0-0.4,0.1-0.6,0.3c-0.3,0.4-0.4,1-0.4,1.6v0.2H161.4L161.4,20.8z"/>
	<path fill="#FFFFFF" d="M166.1,18.3v1.4c0.4-0.7,0.8-1.1,1.1-1.3c0.3-0.2,0.6-0.3,0.9-0.3c0.3,0,0.5,0.1,0.6,0.2
		c0.2,0.2,0.2,0.4,0.2,0.7c0,0.3-0.1,0.5-0.2,0.7c-0.1,0.2-0.3,0.2-0.5,0.2c-0.2,0-0.4-0.1-0.6-0.2c-0.2-0.2-0.3-0.2-0.3-0.3
		c0,0-0.1,0-0.2,0c-0.1,0-0.3,0-0.4,0.1c-0.2,0.2-0.3,0.4-0.4,0.7c-0.1,0.4-0.2,0.9-0.2,1.4v1.5l0,0.4c0,0.3,0,0.4,0,0.5
		c0.1,0.1,0.1,0.2,0.2,0.3c0.1,0.1,0.3,0.1,0.5,0.1v0.2h-3.4v-0.2c0.3,0,0.5-0.1,0.6-0.2c0.1-0.1,0.1-0.5,0.1-1v-3.5
		c0-0.4,0-0.6-0.1-0.7c0-0.1-0.1-0.2-0.2-0.3c-0.1-0.1-0.2-0.1-0.5-0.1v-0.3H166.1L166.1,18.3z"/>
	<path fill="#FFFFFF" d="M171.9,18.3v0.8c0.3-0.4,0.6-0.6,0.9-0.8c0.3-0.2,0.6-0.2,1-0.2c0.4,0,0.7,0.1,1,0.3
		c0.3,0.2,0.5,0.5,0.5,0.8c0.1,0.3,0.1,0.7,0.1,1.5v2.5c0,0.5,0,0.8,0.1,0.9c0.1,0.1,0.3,0.2,0.6,0.2v0.2H173v-0.2
		c0.2,0,0.4-0.1,0.5-0.3c0.1-0.1,0.1-0.4,0.1-0.8v-2.8c0-0.5,0-0.8-0.1-1c0-0.1-0.1-0.2-0.2-0.3c-0.1-0.1-0.2-0.1-0.3-0.1
		c-0.4,0-0.7,0.3-1.1,0.8v3.4c0,0.5,0,0.8,0.1,0.9c0.1,0.1,0.3,0.2,0.5,0.2v0.2h-3.2v-0.2c0.3,0,0.5-0.1,0.6-0.3
		c0.1-0.1,0.1-0.4,0.1-0.9v-3.6c0-0.5,0-0.8-0.1-0.9c-0.1-0.1-0.3-0.2-0.5-0.2v-0.3H171.9L171.9,18.3z"/>
	<path fill="#FFFFFF" d="M179.2,18.3v0.8c0.3-0.4,0.7-0.6,1-0.8c0.3-0.2,0.6-0.2,1-0.2c0.4,0,0.7,0.1,1,0.3c0.3,0.2,0.5,0.5,0.6,0.9
		c0.4-0.4,0.7-0.7,1-0.9c0.3-0.2,0.7-0.3,1-0.3c0.4,0,0.8,0.1,1,0.3c0.3,0.2,0.4,0.5,0.5,0.8c0.1,0.3,0.2,0.8,0.2,1.5v2.6
		c0,0.5,0,0.8,0.1,0.9c0.1,0.1,0.3,0.2,0.6,0.2v0.2H184v-0.2c0.3,0,0.4-0.1,0.6-0.3c0.1-0.1,0.1-0.4,0.1-0.8v-2.7
		c0-0.6,0-0.9-0.1-1.1c0-0.2-0.1-0.3-0.2-0.3c-0.1-0.1-0.2-0.1-0.3-0.1c-0.2,0-0.4,0.1-0.6,0.2c-0.2,0.1-0.4,0.4-0.6,0.6v3.4
		c0,0.5,0,0.7,0.1,0.9c0.1,0.2,0.3,0.3,0.6,0.3v0.2h-3.3v-0.2c0.2,0,0.3-0.1,0.4-0.1c0.1-0.1,0.2-0.2,0.2-0.3c0-0.1,0.1-0.4,0.1-0.7
		v-2.7c0-0.6,0-0.9-0.1-1.1c0-0.1-0.1-0.3-0.2-0.3c-0.1-0.1-0.2-0.1-0.3-0.1c-0.2,0-0.3,0-0.5,0.1c-0.2,0.1-0.4,0.4-0.7,0.7v3.4
		c0,0.4,0,0.7,0.1,0.9c0.1,0.1,0.3,0.2,0.6,0.2v0.2h-3.3v-0.2c0.3,0,0.5-0.1,0.6-0.3c0.1-0.1,0.1-0.4,0.1-0.9v-3.6
		c0-0.5,0-0.8-0.1-0.9c-0.1-0.1-0.3-0.2-0.5-0.2v-0.3H179.2L179.2,18.3z"/>
	<path fill-rule="evenodd" clip-rule="evenodd" fill="#FFFFFF" d="M192.9,21.2h-3.5c0,0.8,0.3,1.5,0.7,2c0.3,0.4,0.7,0.6,1.1,0.6
		c0.3,0,0.5-0.1,0.7-0.2c0.2-0.2,0.5-0.4,0.7-0.8l0.2,0.1c-0.3,0.7-0.7,1.2-1.1,1.5c-0.4,0.3-0.9,0.4-1.4,0.4
		c-0.9,0-1.6-0.4-2.1-1.1c-0.4-0.6-0.6-1.3-0.6-2.2c0-1.1,0.3-1.9,0.9-2.5c0.6-0.6,1.2-0.9,2-0.9c0.6,0,1.2,0.3,1.7,0.8
		C192.6,19.4,192.9,20.2,192.9,21.2L192.9,21.2z M191.3,20.8c0-0.7,0-1.2-0.1-1.5c-0.1-0.3-0.2-0.5-0.4-0.6
		c-0.1-0.1-0.2-0.1-0.4-0.1c-0.2,0-0.4,0.1-0.6,0.3c-0.3,0.4-0.4,1-0.4,1.6v0.2H191.3L191.3,20.8z"/>
	<path fill="#FFFFFF" d="M195.7,18.3v0.8c0.3-0.4,0.6-0.6,0.9-0.8c0.3-0.2,0.6-0.2,1-0.2c0.4,0,0.7,0.1,1,0.3
		c0.3,0.2,0.5,0.5,0.5,0.8c0.1,0.3,0.1,0.7,0.1,1.5v2.5c0,0.5,0,0.8,0.1,0.9c0.1,0.1,0.3,0.2,0.6,0.2v0.2h-3.2v-0.2
		c0.2,0,0.4-0.1,0.5-0.3c0.1-0.1,0.1-0.4,0.1-0.8v-2.8c0-0.5,0-0.8-0.1-1c0-0.1-0.1-0.2-0.2-0.3c-0.1-0.1-0.2-0.1-0.3-0.1
		c-0.4,0-0.7,0.3-1.1,0.8v3.4c0,0.5,0,0.8,0.1,0.9c0.1,0.1,0.3,0.2,0.5,0.2v0.2h-3.2v-0.2c0.3,0,0.5-0.1,0.6-0.3
		c0.1-0.1,0.1-0.4,0.1-0.9v-3.6c0-0.5,0-0.8-0.1-0.9c-0.1-0.1-0.3-0.2-0.5-0.2v-0.3H195.7L195.7,18.3z"/>
	<path fill="#FFFFFF" d="M202.7,16v2.3h1.5V19h-1.5v3.9c0,0.4,0,0.6,0,0.7c0,0.1,0.1,0.2,0.2,0.3c0.1,0.1,0.2,0.1,0.2,0.1
		c0.3,0,0.6-0.2,0.8-0.7l0.2,0.1c-0.4,0.9-1,1.3-1.8,1.3c-0.4,0-0.7-0.1-1-0.3c-0.3-0.2-0.5-0.5-0.5-0.7c0-0.2-0.1-0.6-0.1-1.2V19
		h-0.8v-0.2c0.6-0.4,1-0.8,1.4-1.3c0.4-0.4,0.7-0.9,1-1.5H202.7L202.7,16z"/>
	<path fill="#FFFFFF" d="M22.8,39.7c0,0.1-0.1,0.1-0.2,0.2"/>
	<path fill="#FFFFFF" d="M24.3,27.3c0.2,0,0.3-0.1,0.3-0.3c0-0.2-0.1-0.3-0.3-0.3c-0.2,0-0.3,0.1-0.3,0.3
		C24,27.2,24.2,27.3,24.3,27.3L24.3,27.3z"/>
	<path fill="#FFFFFF" d="M39.7,13.3L39.7,13.3l-11.9,0v0h0l0,9.6c0,0.9,0.4,1.7,0.9,2l4.6,2.7c0.1,0.1,0.3,0.2,0.4,0.2
		c0.1,0,0.3-0.1,0.4-0.1l4.7-2.8c0.5-0.2,0.9-1.1,0.9-2L39.7,13.3L39.7,13.3L39.7,13.3z M31.7,16.1h-1v-2.5h1V16.1L31.7,16.1z
		 M31,17l0.1-0.2L31,16.7l0.2,0l0.1-0.2l0.1,0.2l0.2,0l-0.1,0.2l0.1,0.2l-0.2,0v0.2l-0.2-0.1l-0.2,0.1V17L31,17L31,17z M28.1,20.1
		v-2.3h1.3v2.3H28.1L28.1,20.1z M28.3,16.7l0.2,0l0.1-0.2l0.1,0.2l0.2,0l-0.1,0.2L29,17l-0.2,0v0.2l-0.2-0.1l-0.2,0.1V17l-0.2,0
		l0.1-0.2L28.3,16.7L28.3,16.7z M29.7,19l0.2,0l0.1-0.2l0.1,0.2l0.2,0l-0.1,0.2l0.1,0.2l-0.2,0v0.2L30,19.5l-0.2,0.1v-0.2l-0.2,0
		l0.1-0.2L29.7,19L29.7,19z M30.5,17.2c0-0.1-0.1-0.1-0.1-0.1c-0.1,0-0.2,0.2-0.2,0.2c-0.1,0-0.1,0-0.1-0.1c0-0.1,0.1-0.1,0.2-0.2
		c-0.8,0-0.8,0.4-0.9,0.4c-0.2,0,0.2-0.4,0.3-0.5c-0.2,0-0.2-0.2-0.4-0.3c0.1-0.1,0.1-0.1,0.2,0c0-0.1,0.1-0.2,0.2-0.2
		c0.3,0,0.2,0.3,0.3,0.3c0.1,0,0-0.3,0.2-0.3c0.3,0,0.8,0.9,0.4,0.9C30.4,17.3,30.5,17.2,30.5,17.2L30.5,17.2z M29.6,14.6l0.1-0.2
		l-0.1-0.2l0.2,0l0.1-0.2l0.1,0.2l0.2,0l-0.1,0.2l0.1,0.2l-0.2,0v0.2L30,14.7l-0.2,0.1v-0.2L29.6,14.6L29.6,14.6z M29.3,13.7v2.5
		h-1.3v-2.5H29.3L29.3,13.7z M31.7,26.4l-2.9-1.7c-0.5-0.3-0.7-0.9-0.8-1.6v-2.7h3.6V26.4L31.7,26.4z M30.7,20.1v-2.3h1v2.3H30.7
		L30.7,20.1z M35.4,26.6l-1.3,0.8h0c-0.1,0.1-0.2,0.1-0.3,0.1c-0.1,0-0.3,0-0.4-0.1L32,26.6v-6.2h3.3V26.6L35.4,26.6z M35.4,20.1H32
		v-6.4h3.3V20.1L35.4,20.1z M39.3,23.1c-0.1,0.7-0.3,1.3-0.8,1.6l-2.9,1.7v-6h3.6V23.1L39.3,23.1z M39.3,20.1h-3.6v-6.4h3.6V20.1
		L39.3,20.1z"/>
	<path fill="#FFFFFF" d="M31.5,22.6c0,0-0.5,0.1-0.3,0.1c0-0.1,0.3-0.4,0.4-0.5c0-0.2-0.2,0-0.4,0.1c0.7-1,0.2-0.6-0.1-0.5
		c0.6-0.7,0.4-0.6,0-0.4c0.4-0.3,0.4-0.6,0.4-0.7c-0.3,0.4-0.6,0.4-0.6,0.8c0,0.3-0.1,0.7-0.2,0.9c-0.2,0.2,0-0.7-0.5-0.7
		c-0.1,0-0.5,0-0.6,0.2c0.1,0,0.2,0.2,0.2,0.3c0,0.1,0.1,0.4-0.1,0.4c-0.2,0-0.3-0.3-0.3-0.5c0-0.2,0-0.1,0-0.4
		c0-0.4-0.6-0.9-0.9-0.9c0,0.3,0.4,0.3,0.4,0.7c-0.1,0-0.4-0.3-0.4-0.1c0,0.2,0.2,0.2,0.2,0.4c0,0.1-0.3-0.1-0.3,0.1
		c0,0.1,0.1,0.1,0.2,0.3c-0.1,0-0.2,0-0.2,0c0,0,0,0.1,0.1,0.2c0,0-0.1,0.1-0.1,0.3c0,0.8,0.5,1.1,0.8,1.1c0.2,0,0.2-0.2,0.2-0.3
		c0,0.1,0.1-0.1,0.1,0.2c0,0.2-0.2,0.1-0.2,0.3c0,0.3,0.4,0,0.4,0.3c0,0.4,0,0.4,0,0.5c0,0.1,0.4-0.1,0.4-0.2c0.1,0,0.1,0.3,0.3,0.3
		c0.1,0,0.1-0.3,0.2-0.3c-0.1,0,0.4,0.3,0.4,0.1c0-0.4-0.1-0.2-0.1-0.4c0-0.2,0.5-0.2,0.4-0.3c-0.1-0.1-0.1,0-0.2-0.2
		c0,0-0.4-0.6,0.1-0.3C31.5,23.7,31.5,22.6,31.5,22.6L31.5,22.6z"/>
	<path fill="#FFFFFF" d="M44.2,25.1c0.2,0,0.4-0.2,0.4-0.3c0-0.2-0.2-0.3-0.4-0.3c-0.2,0-0.4,0.2-0.4,0.3
		C43.8,24.9,44,25.1,44.2,25.1L44.2,25.1z"/>
	<path fill="#FFFFFF" d="M42.6,26c0.2,0,0.4-0.2,0.4-0.3c0-0.2-0.2-0.3-0.4-0.3c-0.2,0-0.4,0.2-0.4,0.3C42.2,25.9,42.4,26,42.6,26
		L42.6,26z"/>
	<path fill="#FFFFFF" d="M23.8,28.2c0.2,0,0.4-0.2,0.4-0.3c0-0.2-0.2-0.3-0.4-0.3c-0.2,0-0.4,0.2-0.4,0.3
		C23.4,28.1,23.6,28.2,23.8,28.2L23.8,28.2z"/>
	<path fill="#FFFFFF" d="M25,28.3c0.2,0,0.4-0.2,0.4-0.3c0-0.2-0.2-0.3-0.4-0.3c-0.2,0-0.4,0.2-0.4,0.3C24.6,28.2,24.8,28.3,25,28.3
		L25,28.3z"/>
	<path fill="#FFFFFF" d="M58.9,11.9c0.6,0.7,0.7,1.8,0.3,2.6C59,14.5,59,14.2,59,14c-0.4-0.8-0.7-1.8-0.4-2.6
		C58.9,11.4,58.8,11.7,58.9,11.9L58.9,11.9z"/>
	<path fill="#FFFFFF" d="M9.2,12.8c-0.1,0.5-0.1,1.2,0,1.7c-0.1,0.1-0.1-0.1-0.2-0.1c-0.8-0.6-0.4-1.7-0.6-2.6c0-0.1,0.1-0.1,0.2,0
		C8.9,12.1,9.1,12.4,9.2,12.8L9.2,12.8z"/>
	<path fill="#FFFFFF" d="M60.7,12.9c0.1,0.2-0.1,0.5-0.3,0.6c-0.2,0-0.4-0.1-0.5-0.2c-0.1-0.2,0.1-0.4,0.2-0.5
		C60.4,12.7,60.6,12.7,60.7,12.9L60.7,12.9z"/>
	<path fill="#FFFFFF" d="M7.9,13.8c0,0.2-0.1,0.4-0.3,0.5c-0.1,0-0.3,0-0.4-0.1c-0.1-0.1-0.1-0.3-0.1-0.4c0.1-0.1,0.2-0.2,0.4-0.2
		C7.7,13.6,7.9,13.6,7.9,13.8L7.9,13.8z"/>
	<path fill="#FFFFFF" d="M61.5,14.2c0,0.1,0,0.2,0,0.3c-0.1,0.2-0.4,0.3-0.6,0.2c-0.1-0.1-0.2-0.2-0.2-0.4c0-0.2,0.2-0.3,0.4-0.4
		C61.3,14,61.4,14.1,61.5,14.2L61.5,14.2z"/>
	<path fill="#FFFFFF" d="M60.3,14.2c0.2,0.1,0,0.3,0,0.4c-0.1,0.1-0.2,0.3-0.4,0.2c-0.1-0.1-0.2-0.1-0.3-0.3c0-0.2,0.1-0.4,0.3-0.5
		C60.1,14,60.2,14.1,60.3,14.2L60.3,14.2z"/>
	<path fill="#FFFFFF" d="M58.8,14.5c0,0.2,0,0.5-0.2,0.6c-0.2,0.1-0.4-0.1-0.5-0.3c0-0.2,0.1-0.4,0.3-0.5
		C58.6,14.3,58.7,14.4,58.8,14.5L58.8,14.5z"/>
	<path fill="#FFFFFF" d="M10.2,14.6c0.1,0.2-0.1,0.3-0.3,0.4c-0.1,0-0.3-0.1-0.4-0.2c-0.1-0.1,0-0.3,0.1-0.4
		C9.8,14.2,10.1,14.4,10.2,14.6L10.2,14.6z"/>
	<path fill="#FFFFFF" d="M8.9,14.7c0,0.2-0.1,0.3-0.2,0.4c-0.2,0.1-0.3-0.1-0.4-0.2c-0.1-0.2,0-0.4,0.2-0.5
		C8.7,14.3,8.9,14.5,8.9,14.7L8.9,14.7z"/>
	<path fill="#FFFFFF" d="M53.8,14.8c0.2,0.4,0.4,1,0.4,1.5c-0.1,0.4,0.1,0.9-0.2,1.2c-0.3-0.1-0.3-0.5-0.5-0.6
		c-0.4-0.7,0-1.6,0.1-2.3C53.7,14.4,53.7,14.6,53.8,14.8L53.8,14.8z"/>
	<path fill="#FFFFFF" d="M8,15c0.1,0.3-0.1,0.4-0.3,0.5c-0.2,0.1-0.4-0.1-0.5-0.3c0-0.2,0.1-0.4,0.3-0.5C7.7,14.7,7.9,14.8,8,15
		L8,15z"/>
	<path fill="#FFFFFF" d="M57.1,15.6c0.3,0.6,0.3,1.3,0.1,2l-0.1,0.1c-0.3-0.6-0.7-1.1-0.9-1.7c0-0.4,0.1-0.8,0.2-1.2
		c0.1-0.1,0.2,0,0.3,0.1C56.8,15.2,56.9,15.5,57.1,15.6L57.1,15.6z"/>
	<path fill="#FFFFFF" d="M59.7,15.2c0,0.2-0.1,0.4-0.3,0.5c-0.2,0-0.4,0-0.5-0.3c-0.1-0.2,0.1-0.4,0.2-0.5
		C59.4,14.9,59.6,15.1,59.7,15.2L59.7,15.2z"/>
	<path fill="#FFFFFF" d="M9,15.9c0,0.2-0.1,0.4-0.3,0.4c-0.2,0.1-0.3-0.1-0.4-0.1c-0.1-0.2-0.1-0.3,0-0.5c0.1-0.1,0.2-0.1,0.3-0.2
		C8.7,15.6,8.9,15.7,9,15.9L9,15.9z"/>
	<path fill="#FFFFFF" d="M9.9,15.8c0.1,0.2-0.1,0.3-0.2,0.4c-0.2,0.1-0.4-0.1-0.5-0.3c0-0.2,0.1-0.3,0.2-0.5
		C9.6,15.4,9.8,15.6,9.9,15.8L9.9,15.8z"/>
	<path fill="#FFFFFF" d="M60.3,15.7c0,0.3-0.4,0.5-0.5,0.8c-0.2,0.6-0.7,1-1.3,1.2C58.4,17.8,58.2,18,58,18c0-0.4,0.3-0.8,0.6-1.2
		C59,16.2,59.6,15.9,60.3,15.7L60.3,15.7z"/>
	<path fill="#FFFFFF" d="M8.5,16.6c0.3,0.4,0.5,0.7,0.9,1c0,0.1,0,0.2-0.1,0.2c-1-0.1-1.7-1.1-2.2-1.8c0.1-0.2,0.3,0,0.5-0.1
		C7.9,16.2,8.3,16.2,8.5,16.6L8.5,16.6z"/>
	<path fill="#FFFFFF" d="M60.6,16.9c0,0.9-0.5,1.8-1.3,2.3c-0.2,0.1-0.5,0.3-0.7,0.2c0.4-0.9,1.1-1.6,1.8-2.4H60.6L60.6,16.9z"/>
	<path fill="#FFFFFF" d="M56.6,17.5c0.1,0.3-0.1,0.5-0.4,0.6c-0.2,0-0.4-0.2-0.5-0.3c0-0.2,0.1-0.4,0.3-0.5c0.1-0.1,0.2-0.1,0.2-0.1
		C56.4,17.3,56.5,17.4,56.6,17.5L56.6,17.5z"/>
	<path fill="#FFFFFF" d="M7.4,17.7c0.4,0.3,0.7,0.6,1.1,1c-0.3,0.2-0.6,0-0.9,0c-0.7-0.3-1.2-0.9-1.9-1.1c0-0.2,0.3-0.1,0.4-0.2
		C6.6,17.4,7,17.6,7.4,17.7L7.4,17.7z"/>
	<path fill="#FFFFFF" d="M29.7,11.5c-1.2-0.5-1.9,0.8-3.1,0.6c-0.1,0.1-0.1,0.2-0.2,0.3c-0.1,0.1-0.2,0-0.2,0
		c-0.1-0.5-0.2-1-0.3-1.4c-0.1-0.2-0.1-0.5-0.2-0.7c-0.7-1.8,1.6-0.4,2.1-1.5c0.4-0.9-0.8-1-1.1-1.7V6.8c-0.3-0.3-0.7-0.4-0.9-0.9
		c0.1-0.5,0.2-1.1,0.1-1.6c0-0.1-0.1-0.3-0.3-0.2c-0.4,0.5-0.7,1-1.1,1.5c-0.4-0.3-0.8-0.7-1.2-0.9c-0.3,0-0.6-0.4-1-0.2
		c-0.1,0.1,0,0.2,0.1,0.3c0,0.8,0.4,1.5,1,2.1l0.1,0.3C23,8,23.1,9,23,9.9c-0.9,2.4-2.5,4.7-4.5,6.3c-1.2,1.3-2.6,2.6-2.8,4.5
		c-0.1,0.3,0,0.6-0.2,0.9c-0.7-0.3-1.4-0.6-1.9-1c-1-0.7-2.3-0.6-3-1.8c-0.2-0.5,0.1-1,0.3-1.3c0.7-0.7,0.6-1.9,0.2-2.7
		c-0.1,0-0.1,0.1-0.2,0.1c-0.1,1.2-1,2.1-0.7,3.5c0.1,0.4,0.3,0.6,0.4,1c-0.1,0-0.4,0-0.5-0.1C9.8,19.1,9.4,19,8.9,19
		c-1,0.4-2.3-0.1-3,0.8c-0.1,0-0.3,0-0.2,0.2c0.5,0,0.9,0.1,1.4,0.1c0.7,0.1,1.2-0.5,1.7-0.8h0.1c0.2-0.2,0.6-0.1,0.8-0.1
		c1.3,0.1,2.3,0.8,3.4,1.4v0.1c-0.4,0.2-0.9,0.3-1.3,0.5c-0.5,0.4-1,0.8-1.2,1.4c-0.3,0.5,0.1,1,0.3,1.4c0,0.2,0,0.5,0.2,0.5
		c0.7-0.7,0-1.6,0.1-2.4c0.2-0.6,0.7-0.9,1.4-1.1c1.2-0.5,2,0.5,3,1c0,1,0.1,1.9-0.1,2.8c-0.3,0.1-0.7,0.2-1,0.1
		c-1.6,0.1-2.9,1-4.4,1.5c-0.7,0.2-1.5,0.2-2.1,0.5c0.5,0.1,1.1,0,1.6-0.1c2-0.3,3.6-1.9,5.8-1.6l0,0.1c-0.2,0.5-0.6,1-1,1.4
		c-0.1-0.2-0.1-0.4-0.3-0.5c-0.2-0.1-0.4,0-0.5,0.2c-0.1,0.1-0.1,0.2,0,0.3c0.1,0.2,0.3,0.2,0.5,0.3c0,0.2-0.3,0.3-0.4,0.4
		c-0.6,1-1.8,0.6-2.5,1.3c-0.1,0.1-0.5,0.2-0.3,0.5c0.8,0.1,1.6-0.1,2.1-0.5c0.8-0.9,1.6-1.7,2.3-2.5c0.1,0.7-0.1,1.4-0.5,1.9
		c-0.2-0.1-0.3-0.3-0.6-0.3c-0.2,0-0.4,0.3-0.4,0.4c0.1,0.1,0.2,0.3,0.3,0.4c-0.7,0.5-1.6,0.5-2.4,0.8c-1.5,0.2-3,0.3-4.5,0.3
		c-0.7,0-1.6,0.2-2.2,0c-0.8,0.1-1.6-0.1-2.3,0.3c-0.1,0.1,0,0.2,0,0.3c1,0.6,2.3,0.1,3.3,0.3h8.2c0.6,0,1.2,0,1.7-0.3
		c1.1-0.6,1.6-1.7,2.2-2.8c0.2-0.4,0.4-0.8,0.4-1.3c0.2-0.7,0.9-1.2,1.6-1.3c0.1,1.1-0.1,2.2-0.4,3.2c-0.1,0.7-0.6,1.3-0.3,2
		c0.1,0.3,0.4,0.3,0.7,0.4c2.5,0,5-0.1,7.7,0c0.5,0.1,0.9,0.2,1.4,0.2c0-0.1,0.2-0.1,0.1-0.2c-0.1-0.2-0.2-0.5-0.5-0.6
		c0-0.1-0.2-0.1-0.3-0.2c-1.3-0.8-2.9-0.4-4.5-0.3c-0.8,0.1-1.6,0.2-2.3-0.2c-0.3-0.4-0.1-1.6-0.1-1.6c0-0.5,1.1-3.8,1.3-4
		c0-0.3,0.2-0.6,0.1-1c0.2-0.4,0.1-1,0.1-1.4c0.1-0.7,0.4-1.3,0.6-1.9c0.1-0.3,0.2-0.6,0.4-1c0.1-0.4,0.2-0.8,0.4-1.1
		c0.7,0.4,1.3,0.4,1.7,1.2l0.3,1.7c0,0.1,0.1,0.3,0.2,0.2c0.5-0.4,0.4-1.2,0.4-1.7c0.1-0.6-0.3-1-0.5-1.5c-0.1-0.1-0.4-0.6-0.4-0.6
		c-0.1-0.5-1.1-0.8-0.9-1.3c0.1-0.5,0.2-0.9,0.7-1.2c0.1,0,0.1,0.1,0.1,0.1l0.2-0.2l0-1.8c0.7,0,1.7,0.1,2.4,0.1
		c0.2,0.1,0.3,0.2,0.5,0.2l0.2-0.2l1.7-0.3C30.8,12.3,30.3,11.5,29.7,11.5L29.7,11.5z"/>
	<path fill="#FFFFFF" d="M13.4,18.1c0,0.3-0.1,0.4-0.3,0.5c-0.2-0.1-0.3-0.1-0.4-0.3c-0.1-0.2,0.1-0.4,0.3-0.5
		C13.1,17.8,13.3,17.9,13.4,18.1L13.4,18.1z"/>
	<path fill="#FFFFFF" d="M12,18.1c0.1,0.1,0.1,0.3,0.1,0.5c-0.1,0.1-0.4,0.2-0.5,0.1c-0.1-0.1-0.2-0.3-0.1-0.4
		C11.6,18,11.9,17.9,12,18.1L12,18.1z"/>
	<path fill="#FFFFFF" d="M56.8,18.6c0.1,0.2-0.1,0.4-0.3,0.5C56.3,19.1,56,19,56,18.7c0-0.2,0.2-0.3,0.3-0.3
		C56.5,18.4,56.7,18.5,56.8,18.6L56.8,18.6z"/>
	<path fill="#FFFFFF" d="M57.9,18.6c0.1,0.1,0.2,0.3,0,0.4c-0.1,0.1-0.1,0.1-0.2,0.2c-0.2,0-0.4,0-0.5-0.3c0-0.2,0.1-0.3,0.3-0.4
		C57.7,18.4,57.8,18.5,57.9,18.6L57.9,18.6z"/>
	<path fill="#FFFFFF" d="M6.8,18.9c-0.1,0.3-0.3,0.4-0.6,0.3c-0.1-0.1-0.1-0.2-0.2-0.3c0-0.1,0.1-0.3,0.2-0.4
		C6.6,18.5,6.8,18.6,6.8,18.9L6.8,18.9z"/>
	<path fill="#FFFFFF" d="M13.8,19.2c0,0.2-0.2,0.3-0.4,0.4c-0.2,0-0.4-0.1-0.5-0.3c0-0.2,0.1-0.4,0.2-0.4
		C13.5,18.8,13.7,19,13.8,19.2L13.8,19.2z"/>
	<path fill="#FFFFFF" d="M12.6,19.1c0.1,0.1,0.1,0.2,0.1,0.3c-0.1,0.1-0.3,0.3-0.5,0.2c-0.1-0.1-0.3-0.2-0.2-0.4
		c0.1-0.1,0.2-0.2,0.3-0.3C12.4,18.9,12.5,19,12.6,19.1L12.6,19.1z"/>
	<path fill="#FFFFFF" d="M61.1,19.3c0,0.2-0.2,0.3-0.3,0.4c-0.2,0.1-0.4,0-0.5-0.1c-0.1,0-0.1-0.2-0.1-0.3c0.1-0.1,0.2-0.2,0.4-0.3
		C60.8,19.1,61,19.2,61.1,19.3L61.1,19.3z"/>
	<path fill="#FFFFFF" d="M62.4,19.5c-0.1,0.2-0.2,0.4-0.4,0.4c-0.1,0-0.4-0.1-0.3-0.3c0-0.1,0.1-0.3,0.2-0.3
		C62.1,19.2,62.3,19.3,62.4,19.5L62.4,19.5z"/>
	<path fill="#FFFFFF" d="M9.2,19.8c0,0.3,0,0.4-0.2,0.5c-0.1,0.1-0.3,0-0.4-0.1c-0.1-0.1-0.2-0.3-0.1-0.4c0-0.2,0.2-0.1,0.4-0.2
		C9,19.6,9.1,19.6,9.2,19.8L9.2,19.8z"/>
	<path fill="#FFFFFF" d="M10.2,20c0.1,0.2-0.1,0.2-0.2,0.4c-0.1,0.1-0.2,0.1-0.4,0c-0.1-0.1-0.3-0.3-0.2-0.5
		C9.7,19.6,10.1,19.7,10.2,20L10.2,20z"/>
	<path fill="#FFFFFF" d="M59.8,19.9c0,0.2-0.2,0.4-0.3,0.5c-0.2,0-0.4-0.1-0.4-0.3c0-0.2,0.1-0.3,0.2-0.4
		C59.5,19.7,59.7,19.7,59.8,19.9L59.8,19.9z"/>
	<path fill="#FFFFFF" d="M61.5,20.2c0,0.2,0,0.4-0.2,0.5c-0.2,0-0.4,0-0.5-0.1c-0.1-0.1-0.1-0.3-0.1-0.4c0.1-0.2,0.3-0.3,0.5-0.3
		C61.4,20,61.4,20.2,61.5,20.2L61.5,20.2z"/>
	<path fill="#FFFFFF" d="M8.4,20.7c0.1,0.2-0.1,0.2-0.2,0.3c-0.1,0.1-0.3,0-0.4,0c-0.1-0.1-0.1-0.3-0.1-0.4
		C7.9,20.2,8.3,20.4,8.4,20.7L8.4,20.7z"/>
	<path fill="#FFFFFF" d="M60.2,21.1c0.1,0,0,0.1,0,0.2c-0.5,0.3-1.2,0.3-1.7-0.1c-0.2-0.2-0.6-0.3-0.8-0.5c0.1-0.3,0.5-0.3,0.7-0.3
		C59.1,20.5,59.6,21,60.2,21.1L60.2,21.1z"/>
	<path fill="#FFFFFF" d="M9.4,20.9c0,0.2-0.1,0.2-0.1,0.4c-0.1,0.1-0.2,0.1-0.4,0c-0.2-0.1-0.3-0.4-0.1-0.5
		C9,20.5,9.3,20.6,9.4,20.9L9.4,20.9z"/>
	<path fill="#FFFFFF" d="M11.2,21c0.1,0.2,0,0.4-0.2,0.5c-0.1,0.1-0.3,0-0.4-0.1c-0.1-0.1-0.3-0.3-0.1-0.5
		C10.7,20.6,11.1,20.8,11.2,21L11.2,21z"/>
	<path fill="#FFFFFF" d="M35.2,21.9c0,0.4-0.7-0.1-0.6,0.5c0.1,0.4,0.2,0.9,0.4,1.2c0.2,0.3,0.1,0.7,0.1,1.1
		c-0.2,0.3-0.5,0.5-0.8,0.7c-0.6-0.1-1.5,0.3-1.7-0.4c-0.1-0.3-0.3-0.6-0.3-1c0.1,0,0.1,0,0.2-0.1c0-0.1-0.2-0.2-0.1-0.4
		c0.7-0.1-0.3-0.7,0.3-0.8c0.5,0.5,1.2,0.3,1.7,0.9c0.1,0.1,0.2,0.2,0.3,0.3c-0.1-0.5-0.3-1-0.4-1.5c-0.1-0.3,0-0.5,0.2-0.7
		C34.8,21.3,35,21.7,35.2,21.9L35.2,21.9z"/>
	<path fill="#FFFFFF" d="M13.1,21.7c0.1,0.2-0.1,0.3-0.2,0.4c-0.2,0.1-0.3-0.1-0.4-0.2c-0.1-0.2,0.1-0.3,0.2-0.4
		C12.8,21.5,13,21.6,13.1,21.7L13.1,21.7z"/>
	<path fill="#FFFFFF" d="M25.9,22c0.2,0.8,0.2,1.7-0.2,2.3c0,0.2,0,0.4-0.2,0.4c-0.6-0.8-0.1-1.9,0.1-2.7
		C25.6,21.8,25.8,21.7,25.9,22L25.9,22z"/>
	<path fill="#FFFFFF" d="M43.7,22.3c0.3,0.6,0.3,1.4,0,1.9l-0.2,0.2c-0.2-0.5-0.4-1-0.5-1.5c0.1-0.4,0.2-0.7,0.2-1.1
		C43.6,21.8,43.6,22.2,43.7,22.3L43.7,22.3z"/>
	<path fill="#FFFFFF" d="M14.7,22.6c-0.1,0.3-0.5,0.3-0.7,0.5c-0.5,0.4-1.2,0.5-1.8,0.4c0.5-0.8,1.4-1.2,2.4-1
		C14.5,22.5,14.6,22.5,14.7,22.6L14.7,22.6z"/>
	<path fill="#FFFFFF" d="M6.1,23.3c0.8,0.5,1,1.3,1.4,2c0.1,0.1,0.3,0.1,0.2,0.3c-0.2,0.1-0.3-0.1-0.6-0.1c-0.8-0.4-1.3-1.2-1.3-2.2
		C5.9,23.3,6.1,23.3,6.1,23.3L6.1,23.3z"/>
	<path fill="#FFFFFF" d="M42.8,24c0,0.2,0,0.4-0.2,0.5c-0.2,0.1-0.4-0.1-0.5-0.3c-0.1-0.1,0.1-0.2,0.1-0.3
		C42.4,23.7,42.7,23.8,42.8,24L42.8,24z"/>
	<path fill="#FFFFFF" d="M51.6,25.1c0-0.4,0.1-0.8,0.1-1.2c0.1-0.1,0.1-0.3,0.1-0.4c0.5-0.7,1.5-0.5,2.3-0.4c0.3,0.2,0.7,0.1,1,0.2
		c0.1-0.1,0.4-0.1,0.5-0.1c0.7-0.4,0.2-1.1,0.3-1.7l-0.2-0.6c-0.1-0.1-0.1-0.3-0.2-0.4c-0.1-0.1-0.2-0.4-0.3-0.6
		c-0.4-0.9-1-1.4-1.6-2.2c-1.1-1.4-2.7-2.2-4.4-2.7c-1.6-0.6-3.3,0.2-4.8,0.7c-0.5-0.1-0.7-0.5-0.8-0.9c-0.1-0.8,0.1-1.6,0.4-2.2
		c0.1-0.5,0.4-0.9,0.6-1.4c0.4-1.2,0.8-2.3,0.9-3.6c0-0.8-0.5-1.3-1.1-1.7c-0.4-0.1-0.9-0.1-1.1,0.2c-0.3,0.6-0.9,0.9-1.4,1.2
		c0,0.4,0.4,0.1,0.5,0.3c0.5,0.1,1-0.1,1.4,0.2c0,0.8-0.4,1.5-0.9,2.2c-0.7,1-1.5,2.1-1.9,3.3l-0.1-0.1l0.1,5.1
		c0.7,1.1,1.5,2.4,2.7,2.8c0.7,0.5,1.5,1.2,2.4,0.7c0.5-0.1,0.5,0.5,0.7,0.8c0.2,0.8-0.3,1.3-0.4,2l-0.5,1.2
		c-0.6,1.2-1.2,2.5-2.1,3.5c-0.3,0-0.5,0.3-0.8,0.4c-0.2,0.2-0.5,0.1-0.7,0.1c-0.6,0.3-1.6,0.1-2,0.7c0,0.1,0.1,0.1,0.2,0.1
		c1.3,0,2.7,0.1,4,0c0.2-0.1,0.3-0.2,0.3-0.4c-0.2-0.4,0.1-0.7,0.2-0.9c0.1-0.5,0.4-0.8,0.6-1.3c0.4-0.9,0.9-1.7,1.4-2.6l0.6-1
		c0.1-0.4,0.4-0.8,0.6-1.2c0.2-0.2,0.2-0.4,0.4-0.6c0-0.2-0.1-0.3-0.2-0.4c0.1-0.1,0.4-0.1,0.6-0.1c0.5,0.3,1.1,0.8,1.2,1.4l0.2,0.5
		l0.1,0.3l0,0.7l0.1,0.6c0.1,1-0.1,2-0.2,3c-0.4,1.2-1.7,1.1-2.7,1.4c-0.2,0.2-0.7,0.1-0.7,0.5c1.2,0.3,2.6,0.1,3.9,0.1
		c0.2-0.1,0.2-0.3,0.4-0.5c0-0.3,0.3-0.5,0.2-0.8c-0.2-0.3,0-0.8-0.1-1.2c0-0.1,0-0.3,0-0.4c0.2-0.6,0.1-1.3,0.2-1.9L51.6,25.1
		L51.6,25.1z"/>
	<path fill="#FFFFFF" d="M61.8,24.3c-0.7,0.9-1.4,2-2.5,2.3c-0.1,0-0.2,0-0.2-0.1c0.7-0.8,1.1-1.9,2.2-2.2
		C61.4,24.3,61.7,24.2,61.8,24.3L61.8,24.3z"/>
	<path fill="#FFFFFF" d="M5.1,25.3c-0.1,0.1,0,0.3-0.2,0.3c-0.2,0.1-0.4,0-0.4-0.2c-0.1-0.2,0.1-0.4,0.3-0.5
		C4.9,25,5.1,25.1,5.1,25.3L5.1,25.3z"/>
	<path fill="#FFFFFF" d="M11.1,25.6c0.1,0.2-0.1,0.2-0.2,0.2c-0.9,0.3-1.8,0-2.4-0.6c0-0.1,0-0.2,0.1-0.2
		C9.4,25.2,10.4,25.1,11.1,25.6L11.1,25.6z"/>
	<path fill="#FFFFFF" d="M6.3,25.3c0,0.1,0.1,0.2,0,0.3c-0.1,0.2-0.3,0.2-0.5,0.2c-0.1-0.1-0.2-0.1-0.3-0.3c0-0.2,0.2-0.3,0.4-0.4
		C6,25.2,6.2,25.2,6.3,25.3L6.3,25.3z"/>
	<path fill="#FFFFFF" d="M25.7,25.4c0,0.2-0.1,0.3-0.2,0.4c-0.2,0-0.4,0-0.4-0.2c-0.1-0.1,0-0.4,0.1-0.4
		C25.4,25.2,25.7,25.2,25.7,25.4L25.7,25.4z"/>
	<path fill="#FFFFFF" d="M62.6,25.5c0.1,0.2-0.1,0.3-0.3,0.4c-0.1,0.1-0.3,0-0.4-0.1c0-0.1-0.1-0.2-0.1-0.3c0.1-0.2,0.3-0.3,0.5-0.3
		C62.4,25.4,62.5,25.4,62.6,25.5L62.6,25.5z"/>
	<path fill="#FFFFFF" d="M64,25.4c0.1,0.2,0,0.3-0.1,0.5c-0.1,0.1-0.2,0.2-0.4,0.1c-0.1-0.1-0.3-0.2-0.3-0.4c0-0.2,0.2-0.3,0.3-0.4
		C63.7,25.2,63.8,25.4,64,25.4L64,25.4z"/>
	<path fill="#FFFFFF" d="M4.2,26c0,0.1-0.1,0.2-0.1,0.4c-0.1,0-0.2,0.1-0.3,0.1c-0.1-0.1-0.2-0.2-0.3-0.3c0-0.2,0.2-0.4,0.4-0.4
		C4,25.8,4.2,25.8,4.2,26L4.2,26z"/>
	<path fill="#FFFFFF" d="M48,26c0,0.1,0,0.2,0,0.3c-0.1,0.2-0.3,0.3-0.5,0.2c-0.1-0.1-0.3-0.3-0.2-0.4C47.5,25.8,47.8,25.8,48,26
		L48,26z"/>
	<path fill="#FFFFFF" d="M7.6,26.3c0,0.1-0.1,0.3-0.3,0.3c-0.2,0-0.2-0.1-0.4-0.2c0-0.2,0-0.4,0.2-0.5C7.4,25.9,7.6,26.1,7.6,26.3
		L7.6,26.3z"/>
	<path fill="#FFFFFF" d="M5.6,26.4c0.1,0.2-0.1,0.4-0.2,0.5c-0.2,0.1-0.5-0.1-0.6-0.3c0-0.2,0.2-0.4,0.4-0.5
		C5.4,26.1,5.5,26.3,5.6,26.4L5.6,26.4z"/>
	<path fill="#FFFFFF" d="M49.4,26.3c0,0.2,0,0.4-0.2,0.5c-0.2,0.1-0.5-0.1-0.6-0.3c0.1-0.2,0.1-0.4,0.4-0.4
		C49.1,26.1,49.3,26.2,49.4,26.3L49.4,26.3z"/>
	<path fill="#FFFFFF" d="M6.6,26.4c0.1,0.1-0.1,0.2-0.1,0.3c-0.1,0-0.2,0.1-0.3,0.1c-0.1-0.1-0.2-0.1-0.3-0.3c0-0.2,0.1-0.3,0.3-0.4
		C6.4,26.1,6.5,26.3,6.6,26.4L6.6,26.4z"/>
	<path fill="#FFFFFF" d="M61.5,26.6c-0.1,0.2-0.2,0.3-0.4,0.3c-0.2,0-0.3-0.1-0.4-0.2c-0.1-0.1-0.1-0.3,0-0.4
		C60.9,26,61.5,26.2,61.5,26.6L61.5,26.6z"/>
	<path fill="#FFFFFF" d="M63.1,26.7C63,26.9,62.8,27,62.6,27c-0.2-0.1-0.4-0.2-0.2-0.5c0.1-0.1,0.1-0.2,0.2-0.2
		C62.8,26.3,63,26.5,63.1,26.7L63.1,26.7z"/>
	<path fill="#FFFFFF" d="M53.2,26.8c0.1,0.3-0.1,0.4-0.3,0.5c-0.1,0-0.3-0.1-0.4-0.2c0-0.2,0.1-0.4,0.3-0.5
		C53,26.6,53.1,26.7,53.2,26.8L53.2,26.8z"/>
	<path fill="#FFFFFF" d="M47.5,27.1c0.1,0,0.1,0.2,0,0.3c-0.1,0.1-0.3,0.3-0.5,0.2c-0.1-0.1-0.2-0.2-0.2-0.4
		C46.9,26.9,47.4,26.8,47.5,27.1L47.5,27.1z"/>
	<path fill="#FFFFFF" d="M48.6,27.2c0,0.2,0,0.3-0.2,0.3c-0.1,0.1-0.3,0-0.5-0.1c0-0.1-0.1-0.2,0-0.3c0.1-0.1,0.2-0.1,0.3-0.2
		C48.4,27.1,48.6,27.1,48.6,27.2L48.6,27.2z"/>
	<path fill="#FFFFFF" d="M13.4,27.2c0.1,0.1,0,0.3,0,0.4c-0.1,0.1-0.3,0.2-0.5,0.1c-0.2-0.1-0.2-0.4-0.1-0.5c0.1,0,0.1-0.2,0.3-0.2
		C13.2,27.1,13.3,27.1,13.4,27.2L13.4,27.2z"/>
	<path fill="#FFFFFF" d="M55.4,27.3c0,0.2-0.2,0.3-0.3,0.3c-0.2,0.1-0.4-0.1-0.5-0.3c0-0.1,0.1-0.2,0.2-0.3
		C55.1,27,55.3,27.2,55.4,27.3L55.4,27.3z"/>
	<path fill="#FFFFFF" d="M54.3,27.3c0.1,0.2-0.1,0.3-0.2,0.4c-0.1,0.1-0.3,0-0.5-0.1c-0.1-0.1-0.1-0.2-0.1-0.3
		c0.1-0.1,0.2-0.2,0.3-0.3C54,27.1,54.2,27.2,54.3,27.3L54.3,27.3z"/>
	<path fill="#FFFFFF" d="M63.7,27.6c0,0.3-0.3,0.1-0.5,0.2c-0.9,0.5-2,0.1-2.8-0.2c0.1-0.3,0.4-0.2,0.5-0.3
		C61.8,26.8,62.7,27.5,63.7,27.6L63.7,27.6L63.7,27.6z"/>
	<path fill="#FFFFFF" d="M6.8,27.3l-0.1,0.1C5.9,27.9,5,28.2,4,28L4,27.8C4.7,27.3,5.7,27.1,6.8,27.3L6.8,27.3L6.8,27.3z"/>
	<path fill="#FFFFFF" d="M57.5,27.5c0,0.2-0.1,0.3-0.2,0.4c-0.2,0.1-0.5,0-0.5-0.2c-0.1-0.2,0.1-0.3,0.3-0.4
		C57.2,27.2,57.4,27.3,57.5,27.5L57.5,27.5z"/>
	<path fill="#FFFFFF" d="M10.5,27.6c-0.1,0.2,0,0.3-0.2,0.4c-0.2,0.1-0.5-0.1-0.5-0.3c-0.1-0.2,0.1-0.3,0.2-0.4
		C10.2,27.2,10.4,27.4,10.5,27.6L10.5,27.6z"/>
	<path fill="#FFFFFF" d="M9,27.7C9.1,27.8,9,27.9,8.9,28c-0.1,0.1-0.3,0.1-0.4,0.1c-0.1-0.1-0.3-0.3-0.2-0.5
		c0.1-0.1,0.2-0.2,0.3-0.2C8.8,27.4,9,27.5,9,27.7L9,27.7z"/>
	<path fill="#FFFFFF" d="M59,28.1c0,0.2-0.2,0.3-0.3,0.4c-0.2,0-0.3-0.1-0.4-0.2c-0.1-0.1,0-0.3,0.1-0.4c0-0.1,0.2-0.1,0.3-0.1
		C58.8,27.8,58.9,28,59,28.1L59,28.1z"/>
	<path fill="#FFFFFF" d="M7.5,27.9c0.1,0.2-0.1,0.2-0.1,0.4c-0.1,0.4-0.3,0.6-0.5,0.9c-0.4,0.5-1,0.5-1.5,0.6l-0.1-0.2
		C5.9,28.9,6.6,28.2,7.5,27.9L7.5,27.9L7.5,27.9z"/>
	<path fill="#FFFFFF" d="M57.9,28.4c0,0.3-0.2,0.3-0.3,0.4c-0.2,0-0.3-0.1-0.4-0.3c-0.1-0.2,0.1-0.3,0.3-0.4
		C57.7,28.1,57.9,28.2,57.9,28.4L57.9,28.4z"/>
	<path fill="#FFFFFF" d="M9.9,28.4c0,0,0,0.1,0.1,0.1c0,0.2-0.2,0.3-0.3,0.4c-0.2,0-0.3-0.1-0.5-0.2c-0.1-0.2,0-0.4,0.2-0.5
		C9.6,28.2,9.8,28.2,9.9,28.4L9.9,28.4z"/>
	<path fill="#FFFFFF" d="M61.8,29c0.2,0,0.2-0.3,0.5-0.3c0.2,0,0.4,0.1,0.5,0.2c0.1,0.3-0.1,0.4-0.3,0.5c-0.1,0.1-0.5-0.1-0.4,0.1
		c0.1,0.1,0.3,0.3,0.3,0.4c0,0.1-0.2,0.1-0.2,0c-0.6-0.3-1.2-0.7-1.5-1.3c-0.1-0.2-0.5-0.3-0.2-0.5C60.9,28.1,61.4,28.6,61.8,29
		L61.8,29z"/>
	<path fill="#FFFFFF" d="M63.8,28.4c0.1,0.1,0.1,0.3,0,0.4c-0.1,0.2-0.4,0.1-0.6,0.1c-0.1-0.1-0.2-0.2-0.2-0.4
		c0.1-0.1,0.2-0.2,0.3-0.3C63.5,28.2,63.6,28.2,63.8,28.4L63.8,28.4z"/>
	<path fill="#FFFFFF" d="M56.2,29.5c0.2,0.2,0.4,0.6,0.5,0.8c0,0.1-0.1,0-0.2,0c-0.7-0.4-1.6-0.8-1.9-1.7c-0.1-0.1-0.2-0.2-0.2-0.3
		c0.5-0.1,1.1,0.3,1.4,0.6C56,29.1,56.1,29.3,56.2,29.5L56.2,29.5z"/>
	<path fill="#FFFFFF" d="M8.7,28.7c0.1,0.2-0.1,0.3-0.2,0.4c-0.2,0-0.4,0-0.5-0.2c-0.1-0.2,0.1-0.4,0.3-0.5
		C8.5,28.4,8.6,28.6,8.7,28.7L8.7,28.7z"/>
	<path fill="#FFFFFF" d="M58.8,29.2c0,0.1-0.1,0.2-0.2,0.3c-0.2,0-0.3,0.1-0.5-0.1c0-0.1-0.1-0.3,0-0.4C58.3,28.7,58.7,29,58.8,29.2
		L58.8,29.2z"/>
	<path fill="#FFFFFF" d="M64,29.5c0.1,0.3-0.1,0.4-0.3,0.5c-0.2,0.1-0.4-0.1-0.5-0.2c-0.1-0.1,0-0.3,0-0.4c0.1-0.1,0.3-0.2,0.5-0.1
		C63.8,29.3,63.9,29.4,64,29.5L64,29.5z"/>
	<path fill="#FFFFFF" d="M49.6,32.3c0,0.3-0.5,0.2-0.6,0.4c-0.6,0.3-1.4,0.3-2.2,0.3v-0.1C47.5,32.3,48.6,32.1,49.6,32.3L49.6,32.3z
		"/>
	<path fill="#FFFFFF" d="M19.3,33.2c0,0.2-0.1,0.3-0.3,0.4c-0.1,0-0.3-0.1-0.4-0.2c-0.1-0.3,0.1-0.4,0.3-0.5
		C19.1,33,19.3,33.1,19.3,33.2L19.3,33.2z"/>
	<path fill="#FFFFFF" d="M49.3,33.5c0,0.2-0.1,0.4-0.3,0.5c-0.2,0-0.3-0.1-0.5-0.1c-0.1-0.1,0-0.2-0.1-0.3
		C48.6,33.1,49.1,33.1,49.3,33.5L49.3,33.5z"/>
	<path fill="#FFFFFF" d="M53.4,33.6c-0.5,0.3-1.1,0.7-1.8,0.7l-1.1,0l-0.1-0.1c0.7-0.8,1.9-0.8,3-0.8V33.6L53.4,33.6z"/>
	<path fill="#FFFFFF" d="M13.6,34.1c0,0.2-0.1,0.3-0.3,0.4c-0.2,0-0.4,0-0.4-0.2c-0.1-0.2,0-0.4,0.2-0.5
		C13.3,33.6,13.5,33.9,13.6,34.1L13.6,34.1z"/>
	<path fill="#FFFFFF" d="M14.7,34.3c0.1,0.1,0,0.2-0.1,0.3c-0.1,0.1-0.3,0.1-0.4,0c-0.1-0.1-0.2-0.2-0.1-0.4
		c0.1-0.1,0.2-0.1,0.2-0.2C14.4,34.1,14.6,34.1,14.7,34.3L14.7,34.3z"/>
	<path fill="#FFFFFF" d="M6.7,36.4c-0.2,0.3-0.5-0.1-0.8-0.2c-0.7-0.4-0.7-1.2-1.4-1.7c0.1-0.3,0.3,0,0.4,0c0.1,0.1,0.3,0.2,0.4,0.2
		C6.1,35.1,6.2,35.8,6.7,36.4L6.7,36.4z"/>
	<path fill="#FFFFFF" d="M67.3,28.3c-0.3-0.6-0.9-0.9-1.6-0.9c-0.5,0-0.9,0.4-1.2,0.9c-0.1,0.5,0,0.9,0.4,1.2c0.1,0.1,0.3,0,0.4-0.1
		c0.1-0.3-0.2-0.3-0.2-0.5c-0.1-0.3,0-0.5,0.2-0.7c0.2-0.2,0.6-0.1,0.8-0.1c0.2,0.2,0.5,0.3,0.6,0.6c0.1,0.4,0.1,0.8,0,1.1
		c-0.2,0.5-0.7,0.9-1.3,1c-1.7,0.3-20.7,0.2-20.7,0.2c-2.2,0.2-4.8-0.4-6.7,0.8c-0.9,0.4-1.3,1.4-1.5,2.2c-0.6,0.5-1.2,1.1-1.6,1.7
		L35,35.5c0.1-0.5,0.3-0.9,0.4-1.4c0.3-0.4,0.3-1,0.5-1.4c0.8-1.3,1.5-2.6,2.8-3.5c0.5-0.7,1.4-0.6,2.2-0.6c0.9,0.4,1.8,0.5,2.9,0.4
		c0,0,0.1-0.1,0.1-0.1c-0.3-0.3-0.8-0.4-1.1-0.6c-0.8-0.4-1.6,0.1-2.5,0.1c0,0-0.1-0.1-0.1-0.1c0.8-0.6,1.7-1,2.6-1.4
		c0.7-0.4,1.5-0.6,2.3-0.9c0.3,0,0.6-0.3,0.9-0.1l1.1-0.3c0,0,0.1,0.1,0.2,0.1c0.9-0.3,2.1,0,3.2,0l0.1,0.1l1,0.3
		c0.4,0,0.5,0.5,0.9,0.5c0.2-0.3-0.2-0.4-0.3-0.6c0.5-0.1,1,0,1.4,0.2l-0.2,0.2c-0.1,0.2,0.1,0.4,0.2,0.5c0.1,0,0.2-0.1,0.4-0.1
		c0.3-0.2,0-0.4,0.1-0.5c1.5,0.3,3,0.6,4.4,1.3c0.4,0.1,0.8,0.4,1.2,0.4c-0.4-0.4-1-0.6-1.6-0.8c-0.4-0.2-0.9-0.2-1.1-0.5
		c0.1-0.1,0.2-0.1,0.3-0.1c0.7-0.1,1.3-0.6,1.8-1.2c0-0.1,0.3-0.1,0.2-0.3c-0.2-0.2-0.5,0.1-0.7,0c-0.9,0.2-1.2,1.2-2.1,1.4
		c-1.1-0.3-2.1-0.5-3.2-0.8c-0.5-0.1-1.1-0.1-1.6-0.3L50.4,25h-2.1c0,0-0.1-0.1-0.1-0.1c0.7-0.2,1.4-0.6,2.1-0.8l5.6-2.6
		c0.6-0.5,1.1-1.1,1.6-1.7c0-0.2-0.1-0.3-0.2-0.4c-0.1-0.1-0.3,0-0.4,0.1c-0.2,0.2,0,0.4,0,0.6c-0.2,0.3-0.6,0.6-1,0.8
		c-0.1,0-5.7,2.6-5.7,2.6c-0.8,0.4-1.7,0.8-2.5,0.9l-1.2,0.2c-0.1,0.3-0.3,0.4-0.5,0.5c-0.3,0.1-0.6,0.3-1,0.3
		c-2.7,1-5.5,2.2-7.6,4.3c0.1-0.3,0.2-0.6,0.2-0.9c0-0.3,0-0.7-0.2-0.9c0-0.1-0.2-0.5-0.2-0.6l-0.3,0.2c-0.2,0.5-0.4,1.3-0.2,1.8
		c0.1,0.4,0.4,0.8,0.1,1.2c-1,1.2-1.6,2.7-2.2,4.1c-0.2,0-0.4-0.3-0.5-0.5c0.7-0.9,1.3-1.9,1.5-3.1c0.1-0.1,0-0.4,0.2-0.5
		c0-0.3,0.2-0.7,0-0.9c0.1-0.5-0.6-0.9-0.1-1.2l-0.4,0.2c-0.9,1.2,0.5,2.9-0.6,4.1v0.1c-0.3,0.4-0.4,0.8-0.8,1
		c-0.5-0.2-0.7-0.8-1-1.2c-0.5-0.4-0.5-1.3-0.2-1.9c0.2-0.6-0.1-1.1-0.2-1.7l-0.2-0.1c-0.5,0.6-0.7,1.7-0.3,2.4
		c0.2,0.4,0.2,0.9,0.5,1.2c0.2,0.6,0.6,1,0.9,1.5c0.1,0.2-0.1,0.3-0.2,0.4c-0.2-0.1-0.2-0.5-0.4-0.6c-0.7-1.5-1.6-2.6-2.7-3.8
		c0-0.2-0.2-0.4-0.1-0.6c0.4-0.4,0.5-1.1,0.3-1.6c0-0.1-0.2-0.2-0.1-0.3l-0.3-0.3c0,0.7-0.4,1.4-0.2,2.2v0c-2.1-1.6-4.5-3-6.9-4.2
		l-0.2,0.5c0.6,0.2,2.2,1.1,2.2,1.1c0.7,0.3,1.4,0.7,2.1,1.1c2.8,1.6,4.7,4.2,6,7.1c0,0.2,0.2,0.5,0.1,0.7c-0.4-0.7-1.1-1-1.6-1.6
		c-0.1-1-0.7-1.9-1.6-2.3c-0.3-0.5-1-0.5-1.5-0.6l-7.6,0c-6.1-0.1-11.8,0.2-17.9,0.1c-0.9-0.1-1.9-0.4-2.1-1.3
		c-0.2-0.3-0.2-0.9,0-1.2c0.2-0.4,0.6-0.5,1.1-0.6c0.3,0,0.6,0.4,0.7,0.6c0,0.3-0.2,0.5-0.3,0.8c0,0.1,0.1,0.3,0.2,0.2
		c0.3-0.1,0.5-0.4,0.5-0.7c0-0.1,0.1-0.4-0.1-0.5c-0.1-0.4-0.6-0.8-1-0.9c-0.5,0-1.1,0.1-1.4,0.5c-0.5,0.4-0.5,1.2-0.3,1.8
		c0.3,0.9,1.3,1.5,2.2,1.7l20.2,0.1c2,0.1,4.2-0.2,6.2,0.2c0.7,0.2,1.5,0.8,1.7,1.6c0,0-0.1,0-0.1,0c-1.6-1.1-3.8-1.5-5.9-1.2
		c-0.8,0-1.6,0.3-2.3,0.5c-0.4,0.1-0.8-0.1-1-0.3c-0.7-0.7-2.1-0.6-3-0.4c0,0.1,0,0.1,0,0.1c1-0.1,1.6,0.8,2.5,0.9
		c0.2,0,0.4-0.2,0.6,0c-1,0.5-1.9,1-2.9,1.3c-0.3-0.1-0.5-0.4-0.7-0.5c-0.4-0.4-1.1-0.3-1.7-0.3c-0.2,0-0.4-0.1-0.5,0
		c0.2,0.3,0.5,0.5,0.9,0.7c0.5,0.2,1.1,0,1.6,0.3c-0.1,0.1-0.3,0.2-0.4,0.3c-1,0.4-1.8,1.3-2.9,1.2c-1.1,0.1-2.3-0.2-3.1-1
		c-0.3-0.8-1.2-1.3-2.1-1.2c-0.1,0-0.1,0-0.1,0.1c0.5,0.3,0.8,0.8,1.3,1.1c0.3,0.4,0.9,0,1.1,0.4c0.4,0.3,0.9,0.5,1.4,0.6
		c0.3,0.1,0.7,0.2,1.1,0.3l-0.1,0.1C12.1,37,9.9,37.1,7.8,37c-0.6,0-1.2-0.2-1.8-0.2C6,36.9,6.2,37,6.4,37.1
		c-0.2,0.1-0.4,0.1-0.6,0.2c-0.2,0.1-0.5,0.1-0.8,0.2c-0.3,0-0.6,0.1-0.9,0.2c-0.4,0.4-0.8,0.8-1.2,1c0,0.1,0,0.2,0.1,0.2
		c0.4-0.2,0.9,0,1.3-0.2C5,38.6,5.4,37.8,6,37.5c0.6-0.5,1.4-0.4,2.1-0.3c0.4,0.1,0,0.3,0.1,0.5c0.2,0.1,0.3,0.3,0.5,0.3
		c0,0,0.1-0.1,0.1-0.1c0.1-0.2,0.1-0.4,0-0.5c0.3-0.2,0.7,0,1-0.1c0.8,0,1.6-0.2,2.3-0.2c0.1,0,0.3-0.1,0.4,0
		c-0.1,0.2-0.3,0.2-0.2,0.4c0,0.2,0.2,0.3,0.4,0.3c0.2-0.1,0.4-0.2,0.3-0.5c0-0.1-0.2-0.2-0.3-0.2c0.4-0.2,0.9-0.3,1.4-0.5
		c0.3-0.1,0.6-0.2,0.9-0.3c0.3,0,0.5-0.3,0.7-0.2c-0.1,0.4-0.2,0.7-0.4,1c-0.3,1.1-0.6,2.6,0,3.6c0.1,0,0.1,0,0.1,0
		c-0.4-1.1-0.2-2.4,0.2-3.4c0.3-1.8,2.1-2.3,3.4-3l0.1,0.1c-0.4,0.9-0.9,1.8-0.8,2.9c0,0.2-0.1,0.4,0,0.5c0.4-0.2,0.6-0.6,0.8-1
		c0.1-0.9-0.4-2.1,0.6-2.8c1.7-0.7,3.3-1.5,5.3-1.6c0.1,0.1,0.2,0,0.2,0.1c-0.4,0.5-1,0.9-1.2,1.5c-0.7,0.9-0.6,2.5-0.4,3.6
		c0.2,0.6-0.4,1-0.6,1.5c-0.1,0.2-0.2,0.5-0.3,0.7l0.4,0c0.4-0.4,0.7-0.8,0.7-1.4c0,0.2,0.2,0.4,0.4,0.4c0.1-0.2-0.1-0.4-0.1-0.6
		c0.3-0.2,0.5,0.2,0.7,0.3c0.4,0.1,0.8,0.3,1.3,0.3l0.1-0.1c-0.5-0.7-1.4-0.8-2.2-0.9c-0.4-0.7-0.4-1.5-0.4-2.4
		c0.1-0.4,0.2-0.9,0.4-1.3c0.1-0.3,0.4-0.6,0.6-0.8c0.4-0.4,0.9-0.6,1.3-0.7h0.1c0,0,0,0.1,0,0.1c-0.6,0.4-0.6,1-1,1.6
		c-0.4,0.5-0.5,1.2-0.2,1.8c0.1,0.3,0.1,0.7,0.4,0.9c0.3-0.4,0.3-0.9,0.4-1.3c-0.1-0.7-0.5-1.3-0.1-2c0.2-0.5,0.6-0.7,1.1-0.9
		c1.1-0.1,2.1,0.5,3.1,0.9c0.2,0.1,0.6,0.3,0.6,0.6c0,0.6-0.3,1.1-0.8,1.4c-0.6,0.3-1.4,0.4-1.9,0c-0.3-0.3-0.4-0.9-0.3-1.3
		c0.2-0.3,0.5-0.5,0.9-0.3c0.2,0.1,0.4,0.3,0.7,0.2c0.1-0.1,0.1-0.2,0.1-0.3c-0.2-0.1-0.3-0.4-0.6-0.5c-0.4-0.1-0.9,0-1.1,0.2
		c-0.4,0.4-0.6,0.9-0.5,1.5c0.1,0.7,0.6,1.2,1.3,1.3c1,0.2,2-0.1,2.6-0.9c0.2-0.3,0.3-0.6,0.5-0.9c1,0.6,1.7,1.7,2.1,2.8
		c0,0.4,0.1,0.7,0,1l0.7,0.1c-0.1-0.2,0-0.4,0.1-0.5c0.3-1.4,1.1-2.5,2.1-3.4c0.4-0.2,0.3,0.3,0.4,0.4c0.3,0.8,1,1.4,1.8,1.6
		c0.9,0.1,1.7-0.1,2.2-0.7c0.3-0.5,0.6-1.2,0.1-1.8c-0.3-0.4-0.7-0.5-1.1-0.5c-0.5,0-0.9,0.4-1.1,0.8c0,0.2,0,0.4,0.1,0.4
		c0.1,0,0.2,0,0.3-0.1c0-0.3,0.3-0.5,0.6-0.6c0.2-0.1,0.5,0,0.7,0.1c0.2,0.2,0.3,0.5,0.3,0.8c0,0.4-0.3,0.8-0.7,1
		c-0.6,0.3-1.5,0.2-2-0.2c-0.2-0.3-0.4-0.6-0.6-0.9c0-0.3-0.2-0.6,0-1c0.9-0.5,1.9-0.9,3-1c0.4,0.1,0.8,0.4,1.1,0.7
		c1,1-0.2,2.4,0.5,3.5c0.2,0,0.2-0.4,0.4-0.6c0.3-0.8-0.1-1.6-0.3-2.3c-0.2-0.5-0.4-0.9-0.8-1.2c0.1,0,0.1,0,0.2,0
		c0.4,0.3,0.9,0.6,1.3,1.1c0.6,1,0.9,2.2,0.8,3.4c-0.2,0.6-0.8,0.9-1.4,1.2c-0.2,0.2-0.5,0.4-0.6,0.7c0.2,0.1,0.6,0,0.9-0.1
		c0.4-0.1,0.6-0.6,0.9-0.9c0,0,0,0.1,0,0.1c0,0.2-0.1,0.5,0.1,0.6c0.1-0.3,0.1-0.7,0.2-1.1c0.3,0.3,0.3,0.7,0.4,1
		c0.2,0.4,0.5,0.9,1,0.9c0.1-0.2,0-0.4-0.1-0.5c-0.1-0.5-0.5-0.8-0.8-1.2c-0.7-1-0.4-2.6-1-3.7c-0.2-0.6-0.6-1-1.1-1.5l0.1-0.1
		c1,0,1.9,0.3,2.8,0.5c1.1,0.6,2.8,0.4,3.3,1.9c0.2,0.8,0.6,1.6,1.2,2.3l0.1,0c0.1-0.2,0.1-0.6,0-0.8c-0.1-1-1-1.3-1.5-2.2l0.1-0.1
		c0.5,0.1,1,0.3,1.5,0.5c1.7,0.5,2.8,2.1,3,3.8c0,1.3-0.2,2.4-0.8,3.6c-0.1,0.2-0.4,0.4-0.2,0.5c0.2-0.2,0.3-0.4,0.4-0.6
		c0.7-1.2,1-2.7,0.7-4.2c0-0.3-0.3-0.5-0.2-0.8c0.1,0.1,0.2,0.1,0.4,0.2c0.1-0.1,0.3-0.1,0.4-0.2c0-0.1,0.1-0.3,0-0.4
		c-0.1-0.2-0.4-0.2-0.6-0.1c-0.1,0.1-0.2,0.3-0.3,0.5c-0.2-0.4-0.4-0.8-0.7-1.1l0-0.1c0.9,0.3,1.8,0.8,2.7,1
		c0.2,0.1,0.4,0.2,0.7,0.2c0.8,0.3,1.7,0.4,2.6,0.6c0.6-0.1,1.1,0.2,1.8,0.1v0l0,0c-0.2-0.3-0.7,0-1-0.2c-1.4-0.1-2.8-0.5-4.1-1
		c0-0.1,0.1,0,0.2,0c0.2-0.1,0.4-0.3,0.3-0.5c-0.1-0.1-0.3-0.2-0.5-0.2c-0.1,0.1-0.3,0.2-0.3,0.4c0,0.2,0.2,0.4,0.3,0.4
		c0,0-0.1,0-0.2,0c-0.6-0.3-1.3-0.6-1.9-0.9c-0.2,0-0.4-0.2-0.6-0.3c-0.5-0.2-1-0.5-1.4-0.6c-1.3-0.7-2.8-1.1-4.2-1.6
		c-0.3-0.1-0.6-0.2-0.9-0.3c-0.5-0.1-1-0.3-1.6-0.4c-1.8-0.4-4.1-0.5-5.7,0.5c-0.2-0.1-0.4,0.3-0.5,0.1c0.4-1.2,1.7-1.5,2.8-1.6
		c8.3-0.1,16.1-0.1,24.3-0.3c1,0,1.9-0.3,2.4-1.2C67.5,29.7,67.5,28.8,67.3,28.3L67.3,28.3z M34.2,36c-0.1,0.3-0.2,0.5-0.2,0.7
		l-0.1,0c0.1-0.3-0.2-0.5-0.2-0.8c-0.2-0.3-0.2-0.6-0.3-0.8c-0.2-0.3,0.2-0.5,0.3-0.7c0.3,0.1,0.4,0.4,0.6,0.6
		C34.5,35.4,34.2,35.7,34.2,36L34.2,36z"/>
	<path fill="#FFFFFF" d="M56.8,34.7c0,0.1,0.1,0.1,0.1,0.2c-0.7,0.6-1.7,0.8-2.8,0.9c-0.1,0-0.2,0.1-0.3,0.1c-0.1,0-0.1-0.1,0-0.1
		C54.5,34.8,55.6,34.4,56.8,34.7L56.8,34.7z"/>
	<path fill="#FFFFFF" d="M53.4,35c0.1,0.3-0.1,0.5-0.3,0.6c-0.2,0-0.4-0.2-0.5-0.3c-0.1-0.2,0.1-0.3,0.1-0.4
		C52.9,34.7,53.3,34.7,53.4,35L53.4,35z"/>
	<path fill="#FFFFFF" d="M13.9,35c0,0.1,0,0.3-0.1,0.4c-0.1,0.1-0.3,0.1-0.4,0.1c-0.1,0-0.2-0.2-0.3-0.3c0-0.2,0.1-0.3,0.3-0.4
		C13.6,34.9,13.8,34.9,13.9,35L13.9,35z"/>
	<path fill="#FFFFFF" d="M10.2,36.4v0.1c-0.5,0.1-1,0-1.4-0.3c-0.3-0.4-0.6-0.8-1.1-1c0-0.1-0.1-0.1,0-0.2
		C8.8,35,9.4,35.8,10.2,36.4L10.2,36.4z"/>
	<path fill="#FFFFFF" d="M59.9,35c-0.5,0.7-0.9,1.6-1.7,1.9c-0.1,0-0.3,0.2-0.4,0.1c0.3-0.8,1-1.7,1.8-2C59.7,35,59.8,35,59.9,35
		L59.9,35z"/>
	<path fill="#FFFFFF" d="M15.1,35.3c0,0.2-0.1,0.3-0.3,0.4c-0.2,0-0.2-0.1-0.4-0.2c-0.1-0.2,0.1-0.3,0.2-0.4
		C14.9,35,15,35.1,15.1,35.3L15.1,35.3z"/>
	<path fill="#FFFFFF" d="M62.5,35.4c-0.2,0.3-0.1,0.7-0.3,1c-0.4,0.5-0.8,1-1.4,1.1c-0.1-0.2,0.1-0.4,0.2-0.6
		c0.3-0.6,0.7-1.3,1.4-1.6L62.5,35.4L62.5,35.4z"/>
	<path fill="#FFFFFF" d="M3.8,35.6c0.1,0.1,0.1,0.3,0,0.5c-0.1,0.1-0.3,0.1-0.5,0.1C3.1,36,3,35.8,3.1,35.6
		C3.2,35.4,3.6,35.3,3.8,35.6L3.8,35.6z"/>
	<path fill="#FFFFFF" d="M2.6,35.8c0,0.1,0.1,0.2,0.1,0.3c-0.1,0.1-0.2,0.2-0.3,0.3c-0.2,0-0.4-0.1-0.5-0.3c0-0.2,0-0.4,0.2-0.4
		C2.3,35.6,2.5,35.7,2.6,35.8L2.6,35.8z"/>
	<path fill="#FFFFFF" d="M5,36c0,0.2,0.1,0.5-0.2,0.5c-0.3,0.1-0.5-0.1-0.6-0.3c0-0.2,0.1-0.3,0.2-0.4C4.7,35.8,4.9,35.8,5,36L5,36z
		"/>
	<path fill="#FFFFFF" d="M8.4,36.2c0,0.1,0,0.4-0.1,0.4c-0.1,0.1-0.3,0.1-0.4,0c0-0.1-0.3-0.2-0.1-0.4c0.1-0.1,0.2-0.2,0.3-0.2
		C8.2,36.1,8.4,36.1,8.4,36.2L8.4,36.2z"/>
	<path fill="#FFFFFF" d="M64.5,36.4c-0.1,0.1-0.1,0.3-0.3,0.3c-0.2,0-0.4,0-0.5-0.2c-0.1-0.2,0.1-0.4,0.3-0.4
		C64.2,36.1,64.5,36.2,64.5,36.4L64.5,36.4z"/>
	<path fill="#FFFFFF" d="M60.7,36.5c0,0.2-0.2,0.3-0.2,0.4c-0.3,0.1-0.5-0.1-0.6-0.3c0-0.2,0.2-0.3,0.4-0.4
		C60.5,36.1,60.6,36.3,60.7,36.5L60.7,36.5z"/>
	<path fill="#FFFFFF" d="M63.3,36.5c0,0.1-0.1,0.3-0.2,0.4c-0.2,0.1-0.4,0-0.5-0.1c-0.2-0.2,0-0.3,0.1-0.4
		C62.9,36.2,63.2,36.2,63.3,36.5L63.3,36.5z"/>
	<path fill="#FFFFFF" d="M3.2,36.8c0,0.2,0,0.4-0.2,0.5c-0.2,0-0.4-0.1-0.5-0.3c0-0.2,0-0.4,0.2-0.4C2.9,36.5,3.1,36.7,3.2,36.8
		L3.2,36.8z"/>
	<path fill="#FFFFFF" d="M59.7,37c0.1,0.2-0.1,0.4-0.3,0.5c-0.2,0-0.3,0-0.4-0.1c-0.1-0.1-0.2-0.3,0-0.4
		C59.2,36.7,59.6,36.8,59.7,37L59.7,37z"/>
	<path fill="#FFFFFF" d="M14.4,37.3c0.1,0.2-0.2,0.3-0.2,0.4c-0.1,0-0.2,0.1-0.3,0c-0.1-0.1-0.2-0.3-0.2-0.4
		c0.1-0.1,0.1-0.2,0.3-0.2C14.2,36.9,14.3,37.1,14.4,37.3L14.4,37.3z"/>
	<path fill="#FFFFFF" d="M64.2,37.4c0,0.1-0.1,0.2-0.1,0.3c-0.1,0.1-0.3,0.1-0.5,0.1c-0.2-0.1-0.2-0.3-0.2-0.5
		c0.1-0.1,0.1-0.2,0.3-0.2C63.9,37.1,64.1,37.2,64.2,37.4L64.2,37.4z"/>
	<path fill="#FFFFFF" d="M62.9,37.5c0.1,0.3-0.1,0.4-0.3,0.4c-0.1,0-0.2,0-0.2,0.1c0.5,0.3,0.9,0.7,1.3,1.1v0.2
		c-0.7,0-1.5-0.2-2.1-0.8c-0.1-0.1-0.4-0.1-0.6-0.3c0.3-0.3,0.8-0.2,1.1-0.2c0.3-0.3-0.3-0.5,0-0.8c0.1,0,0.2-0.1,0.4-0.1
		C62.7,37.2,62.8,37.4,62.9,37.5L62.9,37.5z"/>
	<path fill="#FFFFFF" d="M54.4,37.5c0,0.1-0.1,0.2-0.1,0.3C54.1,38,54,38,53.8,37.9c-0.1-0.1-0.3-0.3-0.2-0.5
		C53.8,37.1,54.3,37.2,54.4,37.5L54.4,37.5z"/>
	<path fill="#FFFFFF" d="M7.9,38.2c-0.1,0.2-0.1,0.3-0.4,0.3c-0.2,0-0.3-0.1-0.4-0.3c0-0.1,0.1-0.2,0.1-0.3
		C7.5,37.8,7.9,37.9,7.9,38.2L7.9,38.2z"/>
	<path fill="#FFFFFF" d="M9.6,38c0,0.3-0.3,0.5-0.4,0.8c-0.3,0.7-0.9,1.3-1.7,1.4c-0.1-0.2,0.3-0.4,0.4-0.6c0.3-0.7,1-1.1,1.6-1.5
		H9.6L9.6,38z"/>
	<path fill="#FFFFFF" d="M53.9,38.2c0,0.2-0.2,0.4-0.4,0.5c-0.2,0.1-0.3-0.1-0.4-0.2c-0.2-0.2-0.1-0.3,0-0.5
		C53.4,37.8,53.7,38,53.9,38.2L53.9,38.2z"/>
	<path fill="#FFFFFF" d="M55.2,38.4c0,0.2-0.2,0.4-0.4,0.5c0-0.1-0.1,0-0.2,0c-0.1-0.1-0.3-0.2-0.3-0.4c0.1-0.1,0.1-0.3,0.3-0.3
		C54.8,38.1,55.1,38.1,55.2,38.4L55.2,38.4z"/>
	<path fill="#FFFFFF" d="M12.8,38.4c0,0.2-0.1,0.4-0.3,0.4c-0.2,0-0.3-0.1-0.4-0.3c0-0.2,0.1-0.3,0.2-0.4
		C12.6,38.1,12.7,38.2,12.8,38.4L12.8,38.4z"/>
	<path fill="#FFFFFF" d="M14.3,38.5c-0.1,0.2-0.2,0.3-0.4,0.4c-0.1,0-0.3-0.1-0.4-0.3c0-0.2,0.1-0.3,0.3-0.4
		C14,38.1,14.2,38.2,14.3,38.5L14.3,38.5z"/>
	<path fill="#FFFFFF" d="M59.6,39.9c0.1,0.1,0.3,0.2,0.2,0.3C59.5,40.4,59.3,40,59,40c-0.5-0.5-0.9-1-1.1-1.7c0.2-0.2,0.4,0,0.6,0.1
		C58.9,38.8,59.4,39.3,59.6,39.9L59.6,39.9z"/>
	<path fill="#FFFFFF" d="M60.4,38.5c0.1,0.1,0,0.3,0,0.5c-0.1,0.2-0.4,0.2-0.6,0.1c-0.1-0.1-0.3-0.3-0.2-0.5
		c0.1-0.2,0.2-0.2,0.4-0.3C60.1,38.3,60.3,38.4,60.4,38.5L60.4,38.5z"/>
	<path fill="#FFFFFF" d="M16.2,39c0,0.2,0.1,0.4-0.1,0.5c-0.2,0-0.4,0-0.5-0.3c-0.1-0.3,0.1-0.3,0.2-0.4C15.9,38.8,16,38.9,16.2,39
		L16.2,39z"/>
	<path fill="#FFFFFF" d="M55.1,40.4c0.3,0.4,0.5,0.9,0.5,1.5c-0.1,0.1,0.1,0.3,0,0.4h-0.1c-0.9-0.7-1.1-1.6-1.5-2.6
		c-0.1,0-0.1-0.1-0.1-0.2c0.2-0.2,0.4,0.2,0.6,0.3L55.1,40.4L55.1,40.4z"/>
	<path fill="#FFFFFF" d="M18.9,39.7C18.8,39.7,18.9,39.7,18.9,39.7c-0.8,0.6-2,1-2.9,0.4c0-0.1,0-0.2,0.1-0.2
		c0.6-0.2,1.2-0.5,1.8-0.4L18.9,39.7L18.9,39.7z"/>
	<path fill="#FFFFFF" d="M14.1,39.8c-0.7,0.4-1.3,1.3-2.2,1.5c-0.2,0.1-0.3,0.3-0.5,0.2c0.4-1.1,1.6-1.7,2.7-1.8V39.8L14.1,39.8z"/>
	<path fill="#FFFFFF" d="M53.9,40.7c0.1,0.2,0,0.4-0.2,0.4c-0.1,0.1-0.3,0.1-0.4,0c-0.2-0.1-0.2-0.3-0.2-0.4
		c0.1-0.1,0.2-0.2,0.3-0.2C53.6,40.5,53.8,40.5,53.9,40.7L53.9,40.7z"/>
	<path fill="#FFFFFF" d="M52.2,40.8c-0.1,0.3-0.5,0.5-0.7,0.5c-0.7,0.3-1.4-0.1-2-0.3c0-0.2,0.2-0.1,0.3-0.2
		c0.7-0.1,1.4-0.3,2.1-0.1C51.9,40.7,52.1,40.7,52.2,40.8L52.2,40.8z"/>
	<path fill="#FFFFFF" d="M14.1,41.4c-0.1,0.1-0.1,0.3-0.2,0.3c-0.1,0.1-0.3,0-0.4-0.1c0-0.1-0.2-0.2-0.1-0.4c0-0.1,0.2-0.2,0.3-0.2
		C13.9,41.1,14.1,41.2,14.1,41.4L14.1,41.4z"/>
	<path fill="#FFFFFF" d="M15.4,41.6c-0.1,0.1-0.1,0.3-0.3,0.4c-0.2,0-0.3,0-0.4-0.1c-0.1-0.1-0.1-0.3-0.1-0.4c0-0.1,0.2-0.1,0.3-0.2
		C15.1,41.2,15.3,41.4,15.4,41.6L15.4,41.6z"/>
	<path fill="#FFFFFF" d="M53.5,41.8c0,0.2-0.1,0.3-0.1,0.4c-0.1,0.1-0.3,0.2-0.5,0.1c-0.1,0-0.2-0.2-0.2-0.3
		c-0.1-0.2,0.1-0.3,0.1-0.4C53,41.4,53.4,41.5,53.5,41.8L53.5,41.8z"/>
	<path fill="#FFFFFF" d="M54.4,41.8c0,0.1,0.1,0.2,0,0.3c-0.1,0.1-0.2,0.4-0.5,0.3c-0.1,0-0.2-0.1-0.2-0.2c-0.1-0.2,0-0.5,0.2-0.6
		C54.2,41.5,54.3,41.7,54.4,41.8L54.4,41.8z"/>
	<path fill="#FFFFFF" d="M14.6,42.4c0,0.2,0,0.4-0.2,0.6c-0.2,0-0.5,0-0.6-0.2c0-0.2,0-0.5,0.2-0.6C14.3,42.1,14.5,42.1,14.6,42.4
		L14.6,42.4z"/>
	<path fill="#FFFFFF" d="M15.8,42.3c0,0.6-0.2,1.3-0.7,1.6c-0.3,0.1-0.7,0.4-1,0.2V44C14.5,43.4,15.3,42.9,15.8,42.3L15.8,42.3z"/>
	<path fill="#FFFFFF" d="M50.2,42.8c0.1,0.1-0.1,0.2-0.1,0.3c-0.1,0.1-0.4,0.1-0.5,0c-0.1-0.1-0.2-0.3-0.1-0.4
		c0-0.1,0.2-0.2,0.3-0.2C49.9,42.5,50.1,42.6,50.2,42.8L50.2,42.8z"/>
	<path fill="#FFFFFF" d="M17.9,43.7c0.3,0.5,0.1,1.1,0.3,1.7c-0.4,0-0.5-0.4-0.7-0.6c-0.5-0.6-0.4-1.5-0.6-2.2c0-0.1,0.1-0.1,0.1,0
		c0.3,0.2,0.5,0.6,0.8,0.9C17.7,43.6,17.9,43.6,17.9,43.7L17.9,43.7z"/>
	<path fill="#FFFFFF" d="M51.3,42.9c0,0.2-0.2,0.2-0.3,0.3c-0.1,0-0.3-0.1-0.4-0.2c-0.1-0.2,0.1-0.3,0.2-0.4
		C51,42.6,51.2,42.7,51.3,42.9L51.3,42.9z"/>
	<path fill="#FFFFFF" d="M53.7,44.8c0,0.1,0,0.2-0.1,0.1h-0.1c-0.6-0.5-1.2-1.1-1.1-2l0.1,0C53.1,43.4,53.7,43.9,53.7,44.8
		L53.7,44.8z"/>
	<path fill="#FFFFFF" d="M52.2,44.1c0,0.2-0.1,0.3-0.2,0.4c-0.2,0.1-0.6,0-0.6-0.3c0-0.2,0.2-0.3,0.3-0.4
		C51.9,43.8,52.1,43.9,52.2,44.1L52.2,44.1z"/>
	<path fill="#FFFFFF" d="M50.8,44.6c-0.3,0.8-1.1,1.2-1.6,1.8c-0.1-0.1-0.1-0.2,0-0.3c0.2-0.8,0.8-1.6,1.6-1.9
		C51.1,44.2,50.7,44.4,50.8,44.6L50.8,44.6z"/>
	<path fill="#FFFFFF" d="M52.4,45.2c0,0.2-0.2,0.3-0.3,0.4c-0.2,0-0.3-0.1-0.5-0.2c0-0.2,0.1-0.3,0.3-0.4
		C52.1,44.9,52.3,45,52.4,45.2L52.4,45.2z"/>
	<path fill="#FFFFFF" d="M36.9,7.2c0.3,0,0.5,0.2,0.5,0.5c0,0.3-0.2,0.5-0.5,0.5h-6.2c-0.3,0-0.5-0.2-0.5-0.5c0-0.3,0.2-0.5,0.5-0.5
		H36.9L36.9,7.2z M32.5,8.1c0.6,0,0-0.7-0.3-0.7h-0.6c-0.6,0,0,0.7,0.3,0.7H32.5L32.5,8.1z M35.1,8.1c0.6,0,0-0.7-0.3-0.7h-0.6
		c-0.6,0,0,0.7,0.3,0.7H35.1L35.1,8.1z M36.9,7.4h-0.2c-0.6,0-0.1,0.7,0.2,0.7C37.3,8.1,37.4,7.4,36.9,7.4L36.9,7.4z"/>
	<path fill="#FFFFFF" d="M36.4,14.3l1.2,0.5l1.2-0.5L38.2,16l0.9-0.2l-0.3,1.1l0.3,1l-0.8-0.2l0.4,1.9l-1.2-0.5l-1.2,0.5l0.5-1.9
		l-0.9,0.3l0.3-1.1l-0.3-1l0.9,0.1L36.4,14.3L36.4,14.3z M38.1,17.4c0.3,0,0.3-0.4,0.3-0.7c0-0.7-0.6,0-0.9-0.7
		c-0.2,0.6-0.8,0-0.8,0.7c0,0.4,0,0.7,0.4,0.7H38.1L38.1,17.4z M36.9,16.8c0,0.3,0.4,0.1,0.6,0.1c0.3,0,0.6,0.2,0.6-0.1
		c0-0.4-0.4-0.3-0.6-0.3C37.3,16.5,36.9,16.4,36.9,16.8L36.9,16.8z"/>
	<polygon fill="#FFFFFF" points="33.6,16.8 33.6,16.6 33.4,16.6 33.6,16.4 33.5,16.2 33.7,16.3 33.8,16 33.9,16.2 34.1,16.2 
		34,16.4 34.2,16.6 34,16.6 34,16.8 33.8,16.7 33.6,16.8 	"/>
	<polygon fill="#FFFFFF" points="32.7,18 32.7,17.8 32.5,17.7 32.6,17.6 32.6,17.4 32.8,17.4 32.9,17.2 33,17.4 33.2,17.4 
		33.1,17.6 33.3,17.7 33.1,17.8 33.1,18 32.9,17.9 32.7,18 	"/>
	<polygon fill="#FFFFFF" points="34.2,17.9 34.2,17.6 34,17.6 34.2,17.4 34.1,17.3 34.3,17.3 34.4,17.1 34.5,17.3 34.8,17.3 
		34.7,17.4 34.8,17.6 34.6,17.6 34.6,17.9 34.4,17.7 34.2,17.9 	"/>
	<polygon fill="#FFFFFF" points="34.4,18.7 34.4,18.6 34.3,18.6 34.4,18.5 34.3,18.4 34.5,18.4 34.5,18.3 34.6,18.4 34.7,18.4 
		34.7,18.5 34.7,18.6 34.6,18.6 34.6,18.7 34.5,18.7 34.4,18.7 	"/>
	<polygon fill="#FFFFFF" points="33,19.7 33,19.4 32.6,19.3 32.9,19 32.7,18.7 33.1,18.8 33.3,18.4 33.5,18.7 33.9,18.7 33.7,19 
		34,19.3 33.6,19.4 33.6,19.7 33.3,19.5 33,19.7 	"/>
	<polygon fill="#FFFFFF" points="33.7,0 34.4,1.8 36.3,1.3 35.4,3 36.9,4.1 35,4.4 35.2,6.3 33.7,5 32.3,6.3 32.4,4.4 30.5,4.1 
		32.1,3 31.1,1.3 33,1.8 33.7,0 	"/>
	<path fill="#FFFFFF" d="M27,40.4c-0.2,0.1-0.3,0.1-0.3,0.4l0.3,1.1c0,0.2,0.1,0.5-0.1,0.7c-0.2,0.2-0.5,0.4-0.8,0.4
		c-0.2,0-0.6,0.1-0.9,0c-0.2-0.1-0.3-0.2-0.4-0.6l-0.3-1.2C24.5,41,24.4,41,24.2,41l0-0.1l1.4-0.3l0,0.1c-0.3,0.1-0.4,0.1-0.3,0.4
		l0.3,1.2c0,0.2,0.2,0.7,0.8,0.5c0.7-0.2,0.6-0.7,0.6-0.9l-0.2-1.1c0-0.2-0.1-0.3-0.5-0.2l0-0.1L27,40.4L27,40.4L27,40.4z"/>
	<path fill="#FFFFFF" d="M29.1,40.6c-0.1-0.2-0.5-0.6-1-0.5c-0.2,0-0.4,0.2-0.4,0.4c0,0.2,0.1,0.2,0.5,0.3l0.7,0.1
		c0.2,0,0.5,0.2,0.6,0.5c0.1,0.3-0.1,0.8-0.9,1c-0.4,0.1-0.6,0-0.7,0c-0.1,0-0.1,0.1-0.1,0.1l-0.1,0l-0.2-0.9l0.1,0
		c0.2,0.3,0.5,0.7,1,0.6c0.5-0.1,0.4-0.5,0.4-0.5c-0.1-0.2-0.3-0.3-0.6-0.3l-0.3,0c-0.8-0.1-0.8-0.4-0.9-0.6c0-0.2,0-0.7,0.8-0.9
		c0.3-0.1,0.6,0,0.7,0c0.1,0,0.1-0.1,0.1-0.1l0.1,0l0.2,0.8L29.1,40.6L29.1,40.6z"/>
	<path fill="#FFFFFF" d="M31.8,42l-1.5,0.1l0-0.1c0.3-0.1,0.4-0.1,0.4-0.4l-0.2-1.9c-0.3,0-0.7,0.1-0.8,0.7l-0.1,0l-0.1-0.7l2.5-0.2
		l0.1,0.7l-0.1,0c-0.1-0.6-0.6-0.5-0.9-0.5l0.2,1.9C31.4,41.9,31.5,41.9,31.8,42L31.8,42L31.8,42z"/>
	<path fill="#FFFFFF" d="M35.3,42l-0.9,0l-0.9-1.1l-0.1,0l0,0.7c0,0.3,0.1,0.3,0.4,0.3l0,0.1l-1.4,0l0-0.1c0.3,0,0.4,0,0.4-0.3
		l0-1.6c0-0.3-0.1-0.3-0.4-0.3l0-0.1l1.4,0c0.3,0,1.2,0.1,1.2,0.6c0,0.4-0.4,0.5-0.7,0.6l0.8,1C35.2,41.9,35.3,41.9,35.3,42L35.3,42
		L35.3,42z M33.5,40.7c0.6,0,0.8-0.1,0.8-0.5c0-0.4-0.2-0.5-0.5-0.5c-0.2,0-0.2,0-0.3,0.1L33.5,40.7L33.5,40.7z"/>
	<path fill="#FFFFFF" d="M38.1,42.3l-1.4-0.2l0-0.1c0.3,0,0.3,0,0.4-0.1c0-0.1-0.1-0.4-0.1-0.5L36,41.3c-0.1,0.2-0.2,0.4-0.2,0.4
		c0,0.1,0.2,0.2,0.3,0.2l0,0.1L35.3,42l0-0.1c0.2,0,0.3-0.1,0.5-0.4l1.2-1.8l0.1,0l0.7,2C37.9,42.1,37.9,42.2,38.1,42.3L38.1,42.3
		L38.1,42.3z M36.9,41.3l-0.3-0.9l-0.5,0.8L36.9,41.3L36.9,41.3z"/>
	<path fill="#FFFFFF" d="M40.6,42.8l-2.4-0.4l0-0.1c0.2,0,0.4,0,0.4-0.2l0.3-1.7c0-0.2-0.1-0.3-0.3-0.3l0-0.1l1.5,0.3l0,0.1
		c-0.3,0-0.4-0.1-0.5,0.2l-0.3,1.7c0,0.2,0.1,0.2,0.3,0.3c0.6,0.1,0.9-0.1,1.2-0.5l0.1,0L40.6,42.8L40.6,42.8z"/>
	<path fill="#FFFFFF" d="M42.2,43.2l-1.5-0.3l0-0.1c0.2,0,0.4,0.1,0.4-0.2l0.3-1.7c0-0.2-0.1-0.3-0.3-0.3l0-0.1l1.5,0.3l0,0.1
		c-0.2,0-0.4-0.1-0.4,0.2l-0.3,1.7C41.8,43,42,43,42.2,43.2L42.2,43.2L42.2,43.2z"/>
	<path fill="#FFFFFF" d="M45.1,43.5l-1.4-0.1l0-0.1c0.3,0,0.3,0,0.4-0.1c0-0.1-0.1-0.4-0.1-0.5L43,42.6c-0.1,0.2-0.2,0.4-0.2,0.4
		c0,0.1,0.2,0.2,0.3,0.2l0,0.1l-0.9-0.1l0-0.1c0.2,0,0.3-0.1,0.5-0.4l1.1-1.8l0.1,0l0.8,2C44.9,43.3,44.9,43.4,45.1,43.5L45.1,43.5
		L45.1,43.5z M43.9,42.6l-0.3-0.9l-0.5,0.8L43.9,42.6L43.9,42.6z"/>
	<path fill="#FFFFFF" d="M34.3,14.9c0-0.9-0.5-0.1-0.7-0.8c-0.2,0.6-0.8,0.1-0.8,0.8c0,0.3,0.1,0.4,0.2,0.5v0.3
		c0,0.1,0.1,0.1,0.1,0.1H34c0.1,0,0.1-0.1,0.1-0.1v-0.3C34.2,15.2,34.3,15,34.3,14.9L34.3,14.9z M33.6,15c-0.2,0-0.6,0.2-0.6-0.1
		c0-0.4,0.3-0.3,0.5-0.3c0.2,0,0.6-0.1,0.6,0.3C34.1,15.2,33.8,15,33.6,15L33.6,15z"/>
	<path fill="#FFFFFF" d="M41.7,25.3c0.2,0,0.4-0.2,0.4-0.3c0-0.2-0.2-0.3-0.4-0.3c-0.2,0-0.4,0.2-0.4,0.3
		C41.3,25.2,41.5,25.3,41.7,25.3L41.7,25.3z"/>
	<path fill="#FFFFFF" d="M39.9,12.7c0,0-0.2,0.3-0.2,0.4c0,0.1,0.1,0.2,0.2,0.2c0.1,0,0.2-0.1,0.2-0.2C40.1,13,39.9,12.7,39.9,12.7
		L39.9,12.7z"/>
	<path fill="#FFFFFF" d="M27.3,12.7c0,0-0.2,0.3-0.2,0.4c0,0.1,0.1,0.2,0.2,0.2c0.1,0,0.2-0.1,0.2-0.2C27.5,13,27.3,12.7,27.3,12.7
		L27.3,12.7z"/>
	<path fill="#FFFFFF" d="M30.5,12.7c0,0-0.2,0.3-0.2,0.4c0,0.1,0.1,0.2,0.2,0.2c0.1,0,0.2-0.1,0.2-0.2C30.7,13,30.5,12.7,30.5,12.7
		L30.5,12.7z"/>
	<path fill="#FFFFFF" d="M33.6,12.7c0,0-0.2,0.3-0.2,0.4c0,0.1,0.1,0.2,0.2,0.2c0.1,0,0.2-0.1,0.2-0.2C33.8,13,33.6,12.7,33.6,12.7
		L33.6,12.7z"/>
	<path fill="#FFFFFF" d="M36.8,12.7c0,0-0.2,0.3-0.2,0.4c0,0.1,0.1,0.2,0.2,0.2c0.1,0,0.2-0.1,0.2-0.2C36.9,13,36.8,12.7,36.8,12.7
		L36.8,12.7z"/>
	<path fill="#FFFFFF" d="M27.4,17c0,0,0.2,0.3,0.2,0.4c0,0.1-0.1,0.2-0.2,0.2c-0.1,0-0.2-0.1-0.2-0.2C27.2,17.4,27.4,17,27.4,17
		L27.4,17z"/>
	<path fill="#FFFFFF" d="M27.4,21.2c0,0,0.2,0.3,0.2,0.4c0,0.1-0.1,0.2-0.2,0.2c-0.1,0-0.2-0.1-0.2-0.2
		C27.2,21.5,27.4,21.2,27.4,21.2L27.4,21.2z"/>
	<path fill="#FFFFFF" d="M27.9,24.5c0,0,0.2,0.3,0.2,0.4c0,0.1-0.1,0.2-0.2,0.2c-0.1,0-0.2-0.1-0.2-0.2
		C27.7,24.8,27.9,24.5,27.9,24.5L27.9,24.5z"/>
	<path fill="#FFFFFF" d="M30.5,26.2c0,0,0.2,0.3,0.2,0.4c0,0.1-0.1,0.2-0.2,0.2c-0.1,0-0.2-0.1-0.2-0.2
		C30.3,26.6,30.5,26.2,30.5,26.2L30.5,26.2z"/>
	<path fill="#FFFFFF" d="M40.1,17c0,0-0.2,0.3-0.2,0.4c0,0.1,0.1,0.2,0.2,0.2s0.2-0.1,0.2-0.2C40.2,17.4,40.1,17,40.1,17L40.1,17z"
		/>
	<path fill="#FFFFFF" d="M40.1,21.2c0,0-0.2,0.3-0.2,0.4c0,0.1,0.1,0.2,0.2,0.2s0.2-0.1,0.2-0.2C40.2,21.5,40.1,21.2,40.1,21.2
		L40.1,21.2z"/>
	<path fill="#FFFFFF" d="M39.6,24.5c0,0-0.2,0.3-0.2,0.4c0,0.1,0.1,0.2,0.2,0.2c0.1,0,0.2-0.1,0.2-0.2
		C39.7,24.8,39.6,24.5,39.6,24.5L39.6,24.5z"/>
	<path fill="#FFFFFF" d="M36.9,26.2c0,0-0.2,0.3-0.2,0.4c0,0.1,0.1,0.2,0.2,0.2c0.1,0,0.2-0.1,0.2-0.2
		C37.1,26.6,36.9,26.2,36.9,26.2L36.9,26.2z"/>
	<path fill="#FFFFFF" d="M33.7,28.1c0,0-0.2,0.3-0.2,0.4c0,0.1,0.1,0.2,0.2,0.2c0.1,0,0.2-0.1,0.2-0.2
		C33.9,28.5,33.7,28.1,33.7,28.1L33.7,28.1z"/>
	<path fill="#FFFFFF" d="M38.8,21.9c0,0.1,0.1,0.1,0.3,0l0.1-0.3c0,0-0.1-0.2-0.2-0.1c-0.3,0.1-0.7,0.1-0.9,0.4
		c0,0.2,0.2,0.4,0.3,0.5c0.1,0,0.1,0.1,0.2,0.1c0,0.1,0,0.2-0.1,0.2c-0.2-0.2-0.7,0.1-0.8-0.2c0.1-0.3,0.2-0.6,0-0.9
		c0-0.1,0.1-0.1,0.1-0.2c-0.1-0.3-0.4-0.1-0.6-0.1c-0.3,0-0.5,0.1-0.7,0.4c0,0.1,0.1,0.2,0.2,0.3c0.1,0,0.1,0,0.1,0.1l-0.2,0.1
		c0.1,0.1,0.1,0.1,0.1,0.2c-0.1,0.1-0.3-0.1-0.3-0.2c0-0.2,0-0.4-0.2-0.5c0,0-0.2,0.1-0.2,0.1c0,0.1-0.1,0.2-0.1,0.3
		c0,0.1,0.1,0.4,0.1,0.4s0.6,0.5,0.7,0.7c-0.2,0.4-0.2,0.9-0.6,1.1c-0.1,0.1-0.1,0.2-0.1,0.3l0.1,0.1c0.3-0.1,0.7-0.2,0.7-0.6
		c0.1-0.2,0.2-0.4,0.4-0.5c0.2,0,0.4,0.1,0.5,0.2c-0.1,0.3-0.3,0.5-0.5,0.6c0,0,0,0.1,0,0.2c0.1,0.1,0.3,0.1,0.4,0.1
		c0.3-0.2,0.5-0.6,0.8-0.7c0,0.2-0.4,0.3-0.1,0.5c0.2,0,0.4,0,0.5-0.2c-0.1-0.3,0.5-0.5,0.1-0.8c0-0.3,0.3-0.4,0.3-0.7
		c-0.1-0.3-0.5-0.3-0.6-0.6C38.5,21.8,38.7,21.8,38.8,21.9L38.8,21.9z"/>
	<path fill="#FFFFFF" d="M24.4,25.5c0.2,0,0.4-0.2,0.4-0.3c0-0.2-0.2-0.3-0.4-0.3c-0.2,0-0.4,0.2-0.4,0.3
		C24,25.3,24.2,25.5,24.4,25.5L24.4,25.5z"/>
	<path fill="#FFFFFF" d="M4.1,37.4c0.2,0,0.4-0.2,0.4-0.4c0-0.2-0.2-0.4-0.4-0.4c-0.2,0-0.4,0.2-0.4,0.4C3.7,37.2,3.8,37.4,4.1,37.4
		L4.1,37.4z"/>
	<path fill="#FFFFFF" d="M17,40.3L17,40.3L17,40.3L17,40.3L17,40.3C17,40.3,17,40.3,17,40.3L17,40.3L17,40.3L17,40.3
		C16.9,40.3,16.9,40.3,17,40.3L17,40.3C16.9,40.2,16.9,40.2,17,40.3L17,40.3L17,40.3C17,40.2,17,40.2,17,40.3
		C17,40.2,17,40.2,17,40.3L17,40.3C17,40.3,17,40.3,17,40.3L17,40.3L17,40.3z M17,40.2C17,40.2,17,40.2,17,40.2
		C17,40.2,17,40.2,17,40.2C17,40.2,17,40.2,17,40.2L17,40.2L17,40.2z"/>
	<path fill="#FFFFFF" d="M17.1,40.2C17.1,40.2,17.1,40.2,17.1,40.2C17,40.2,17,40.2,17.1,40.2C17,40.2,17,40.2,17.1,40.2L17.1,40.2
		C17.1,40.2,17.1,40.2,17.1,40.2C17.1,40.3,17.1,40.3,17.1,40.2C17,40.3,17,40.3,17.1,40.2C17,40.3,17,40.3,17.1,40.2L17.1,40.2
		L17.1,40.2L17.1,40.2C17,40.2,17,40.3,17.1,40.2C17.1,40.3,17.1,40.2,17.1,40.2C17.1,40.2,17.1,40.2,17.1,40.2L17.1,40.2
		C17,40.2,17,40.2,17.1,40.2C17,40.2,17,40.2,17.1,40.2C17.1,40.2,17.1,40.2,17.1,40.2C17.1,40.2,17.1,40.2,17.1,40.2L17.1,40.2
		L17.1,40.2L17.1,40.2L17.1,40.2z"/>
	<path fill="#FFFFFF" d="M17.2,40.2C17.2,40.2,17.2,40.2,17.2,40.2L17.2,40.2L17.2,40.2L17.2,40.2L17.2,40.2L17.2,40.2L17.2,40.2
		l-0.1,0c0,0,0,0,0,0v0L17.2,40.2L17.2,40.2C17.1,40.2,17.1,40.2,17.2,40.2C17.1,40.2,17.1,40.2,17.2,40.2L17.2,40.2L17.2,40.2
		L17.2,40.2L17.2,40.2C17.1,40.2,17.1,40.2,17.2,40.2L17.2,40.2L17.2,40.2L17.2,40.2C17.2,40.2,17.2,40.2,17.2,40.2
		C17.2,40.2,17.2,40.2,17.2,40.2L17.2,40.2L17.2,40.2L17.2,40.2C17.2,40.2,17.2,40.2,17.2,40.2C17.2,40.2,17.2,40.2,17.2,40.2
		L17.2,40.2L17.2,40.2L17.2,40.2L17.2,40.2z"/>
	<path fill="#FFFFFF" d="M17.2,40.3C17.2,40.3,17.2,40.3,17.2,40.3C17.2,40.2,17.2,40.2,17.2,40.3C17.2,40.2,17.2,40.2,17.2,40.3
		C17.2,40.2,17.2,40.2,17.2,40.3C17.2,40.2,17.2,40.2,17.2,40.3C17.2,40.2,17.3,40.2,17.2,40.3C17.3,40.2,17.2,40.3,17.2,40.3
		L17.2,40.3L17.2,40.3z M17.2,40.2C17.2,40.2,17.2,40.2,17.2,40.2C17.2,40.2,17.2,40.2,17.2,40.2C17.2,40.2,17.2,40.2,17.2,40.2
		C17.2,40.2,17.2,40.2,17.2,40.2C17.2,40.2,17.2,40.2,17.2,40.2L17.2,40.2z"/>
	<path fill="#FFFFFF" d="M17.3,40.2C17.3,40.2,17.3,40.2,17.3,40.2C17.3,40.2,17.3,40.2,17.3,40.2C17.3,40.3,17.3,40.3,17.3,40.2
		C17.3,40.3,17.3,40.3,17.3,40.2C17.3,40.2,17.3,40.2,17.3,40.2C17.3,40.2,17.3,40.3,17.3,40.2C17.3,40.3,17.3,40.3,17.3,40.2
		C17.3,40.2,17.3,40.2,17.3,40.2C17.3,40.2,17.3,40.2,17.3,40.2L17.3,40.2L17.3,40.2L17.3,40.2L17.3,40.2L17.3,40.2L17.3,40.2z"/>
	<path fill="#FFFFFF" d="M40.9,12.2L40.9,12.2l-14.5,0v0h0l0,11.1c0,1.1,0.5,2.1,1.1,2.4l5.6,3.5c0.1,0.1,0.3,0.2,0.5,0.2
		c0.2,0,0.3-0.1,0.5-0.2l5.7-3.6c0.7-0.3,1.1-1.3,1.1-2.4L40.9,12.2L40.9,12.2L40.9,12.2z M40.5,23.4c-0.1,0.8-0.4,1.5-0.9,1.9
		l-5.5,3.5h0c-0.1,0.1-0.3,0.1-0.4,0.1c-0.2,0-0.3-0.1-0.4-0.2l-5.4-3.5c-0.6-0.4-0.9-1.1-0.9-1.9V12.6h13.7V23.4L40.5,23.4z"/>
	<path fill="#FFFFFF" d="M35.6,28.3l0.2-0.1C35.7,28.3,35.7,28.3,35.6,28.3L35.6,28.3z"/>
	<path fill="#FFFFFF" d="M24.7,43.4l-1.4,0.2l0-0.1c0.3,0,0.3-0.1,0.3-0.2c0-0.1-0.2-0.3-0.2-0.4L22.5,43c-0.1,0.3-0.1,0.4-0.1,0.5
		c0,0.1,0.2,0.1,0.4,0.1l0,0.1l-0.9,0.1l0-0.1c0.2-0.1,0.3-0.2,0.4-0.5l0.7-2l0.1,0l1.2,1.7C24.4,43.3,24.5,43.4,24.7,43.4
		L24.7,43.4L24.7,43.4z M23.3,42.7l-0.5-0.8l-0.3,0.9L23.3,42.7L23.3,42.7z"/>
	<path fill="#FFFFFF" d="M48.7,38.2c-0.2-0.6-0.8-1.1-1.4-1.3c-0.7-0.1-1.4,0-1.8,0.5c-0.7,0.6-0.2,1.6-0.2,2.4c0,0.2,0,0.3-0.1,0.4
		c-3-0.3-5.8-1-8.8-1.3c-0.7-0.1-1.4-0.1-2-0.2l-0.8-0.1c-2.6,0.1-5.2,0.2-7.6,0.9c-0.5,0.2-1.1,0.2-1.6,0.4c-0.4-0.1-0.7,0.2-1,0.1
		l-0.7,0.2c-0.1,0-0.1,0-0.2,0c-0.3-0.9,0.7-1.4,0.4-2.2c-0.3-0.5-0.8-0.9-1.4-0.9c-0.7-0.1-1.3,0.3-1.7,0.9c-0.5,1,0.1,2.1,0.3,3.2
		c0,0.3,0.3,0.7,0,1c-0.7-0.5-1.5-0.7-2.3-0.5c-0.2,0.1-0.7,0-0.8,0.3c0.9,0.5,2,0.4,3,0.4c0.1,0,0.2-0.1,0.3,0
		c0.1,0.5-0.1,1.3,0.2,1.8c0.4,0.5,1,0.6,1.6,0.7c1.9-0.1,3.6-0.6,5.4-1.1c0.3,0,0.5-0.2,0.8-0.2c0.9-0.2,2-0.4,3-0.4
		c-0.4,0.6-0.7,1.2-0.9,1.9c-0.2,0.6,0.4,0.6,0.6,1C30,46,29.6,46.5,29,46.7c-1.3,0-2.5,0.5-3.7,0.6c0,0.3,0.4,0.2,0.5,0.5
		c-0.1,0.2-0.2,0.2-0.4,0.3c0,0.1,0,0.1,0.1,0.2c0.1-0.1,0.4,0,0.5-0.2c0.4,0,0.8-0.1,1.2-0.1c0.4-0.1,0.7-0.2,1.1-0.4
		c0.4-0.1,0.7-0.4,1.1-0.5c0.6,0,1.2-0.2,1.8-0.3v0.1c-0.5,0.8-1,1.6-1.5,2.3c-0.1,0.1,0,0.3,0.1,0.3c0.3,0.1,0.6,0,0.8-0.1
		c0.4-0.8,0.8-1.5,1.2-2.2c0.1-0.7,0.7-1.1,1.2-1.6c0.1,0,0.2-0.2,0.3,0c-0.4,0.5-0.7,0.9-1,1.5c-0.2,0.6-0.2,1.3,0.3,1.8
		c0.2,0.2,0.6,0.1,1,0.2c0.8-0.4,1.8,0.3,2.5-0.5c0.4-0.1,0.4,0.4,0.6,0.6c0.4,0.1,0.7,0.5,1.1,0.2c0-0.2-0.3-0.4-0.4-0.6
		c-0.2-0.4-0.6-0.8-0.8-1.2c-0.1-0.3-0.3-0.5-0.3-0.8c0.4,0.1,0.7,0.4,1.1,0.4c0.4,0.1,0.8,0.1,1.1,0.3c0.3,0.4,0.7,0.6,1,0.8
		c0.5,0.3,1.1,0.3,1.6,0.5c0.2,0,0.5,0.2,0.7,0c-0.1-0.1-0.2-0.2-0.3-0.2c-0.1-0.3,0.4-0.1,0.5-0.3c-0.1-0.1-0.1-0.1-0.2-0.2
		c-0.3-0.2-1-0.2-1.2-0.3c-0.2,0-0.5-0.1-0.7-0.2c-1.2,0-1.9-1.1-2.9-1.5c0.2-0.2,0.6-0.4,0.7-0.7c0.2-0.3,0.2-0.8,0.1-1.1
		c-0.2-0.6-1-0.6-1.5-0.9l0.1-0.1c0.8,0,1.5,0.1,2.2,0.3c2,0.3,3.8,1,5.9,1.1c1.1,0,2.6,0.1,3.1-1c0.1-0.6,0.2-1.3,0.3-1.9
		C48.1,40.4,48.8,39.4,48.7,38.2L48.7,38.2z M26.3,47.8L26,47.5c0.1-0.2,0.5-0.1,0.7-0.2c0.5-0.2,1.2-0.4,1.8-0.3
		C27.8,47.6,27,47.6,26.3,47.8L26.3,47.8z M39.2,47.5c0.5,0.2,1.5,0.4,2.2,0.5c-0.1,0.3-0.6,0-0.5,0.4c-0.6-0.3-1.4-0.4-1.9-0.9
		C39.1,47.5,39.2,47.4,39.2,47.5L39.2,47.5z M19.7,38.6c0.1-0.4,0.1-0.8,0.5-1c0.5-0.3,1.2-0.2,1.6,0.1c0.1,0.1,0.2,0.2,0.3,0.4
		c0.1,0.4-0.1,0.7-0.3,0.9h-0.2c0-0.3,0-0.7,0.1-0.9c0-0.3-0.2-0.3-0.4-0.4c-0.4-0.1-0.7,0.1-0.9,0.2c-0.2,0.3-0.4,0.6-0.3,0.9
		c0.1,0.2,0,0.5,0.1,0.8l-0.1,0.1C20,39.3,19.7,39,19.7,38.6L19.7,38.6z M20.7,39.2c0.3,0.2,0.7,0.1,1.1,0.2
		c0.1,0.2,0.1,0.5-0.1,0.7c-0.4-0.1-0.8,0-1-0.4C20.8,39.5,20.7,39.3,20.7,39.2L20.7,39.2z M20.7,38.5c0.1-0.2,0-0.4,0.2-0.5
		c0.1,0,0.4,0,0.4,0.1c0,0.3,0,0.5-0.1,0.7C20.9,38.9,20.7,38.7,20.7,38.5L20.7,38.5z M30.4,45.2c-0.1-0.7,0.2-1.4,0.7-1.9
		c0.3-0.1,0.6-0.1,0.9,0c-0.5,0.1-1.2,0.3-1.4,1c0,0.3-0.1,0.4,0.1,0.6c0.2,0.4,0.7,0.2,1,0.5c0,0.1-0.1,0.2-0.2,0.3
		C31.2,45.5,30.7,45.4,30.4,45.2L30.4,45.2z M29.7,46.6c0.5-0.2,1-0.6,1.6-0.5C30.8,46.5,30.2,46.6,29.7,46.6L29.7,46.6z M31.6,46.8
		c-0.3,0.7-0.6,1.3-1,2c0,0.1-0.2,0.1-0.3,0.1c0-0.3,0.3-0.5,0.4-0.8c0.4-0.6,0.6-1.2,1.1-1.7C31.9,46.6,31.6,46.7,31.6,46.8
		L31.6,46.8z M32.1,45.6L32.1,45.6L32.1,45.6L32.1,45.6L32.1,45.6L32.1,45.6C32.2,45.6,32.1,45.6,32.1,45.6L32.1,45.6L32.1,45.6z
		 M32,45c-0.4,0-0.7-0.1-1-0.3c-0.2-0.2,0-0.4,0-0.7c0.3-0.5,1.1-0.7,1.5-0.3C32.4,44.3,32.2,44.7,32,45L32,45z M32.4,45
		c0.1-0.3,0.2-0.6,0.3-0.9C32.7,44.4,32.6,44.8,32.4,45L32.4,45z M32.6,43.4c-0.3-0.1-0.4-0.4-0.7-0.4c0.2-0.1,0.5-0.1,0.8,0
		C32.8,43.1,32.7,43.2,32.6,43.4L32.6,43.4z M32.9,44L32.9,44l0-0.2h0V44L32.9,44z M32.9,44.9c0-0.1,0-0.2,0.1-0.3
		c0.1-0.1,0.2,0.1,0.2,0.1C33.2,44.9,33,45,32.9,44.9L32.9,44.9z M33.2,43.6c0.1-0.3,0.1-0.5,0.3-0.8c0.2,0,0.4,0,0.6,0.1
		c0,0.4,0.6,1,0,1.3c-0.2,0.1-0.5,0.3-0.7,0.1C33.2,44.1,33.1,43.9,33.2,43.6L33.2,43.6z M34.7,43.1c0-0.2,0.2,0,0.3-0.1l0.6,0
		C35.3,42.9,34.9,43.7,34.7,43.1L34.7,43.1z M35.8,43.3c-0.2,0.1-0.4,0.4-0.7,0.4C35.2,43.5,35.5,43.3,35.8,43.3L35.8,43.3z
		 M34.9,44.6L34.9,44.6L34.9,44.6L34.9,44.6L34.9,44.6L34.9,44.6z M35,45.9c0,0,0,0.1,0,0.1l-0.5-0.4C34.7,45.6,34.8,45.7,35,45.9
		L35,45.9z M34.4,45.3c0,0,0.1,0,0.2,0H34.4L34.4,45.3z M34.1,44.9c0.1-0.1,0.2-0.3,0.3-0.3c0,0,0,0,0,0.1
		C34.3,44.8,34.2,44.9,34.1,44.9L34.1,44.9z M33.6,44.9L33.6,44.9l0-0.1C33.7,44.8,33.6,44.9,33.6,44.9L33.6,44.9z M33.7,45.7
		c0.3-0.3,0.5,0.2,0.6,0.4c0.3,0.5,1.1,0.9,0.8,1.5c-0.4,0.4-1,0-1.5,0.3c-0.2,0-0.6,0-0.7-0.2C33.1,47,33.4,46.3,33.7,45.7
		L33.7,45.7z M33.1,46.1l0.1-0.2c-0.2,0.5-0.4,1-0.7,1.5C32.4,46.9,32.9,46.5,33.1,46.1L33.1,46.1z M34,48.6c-0.4,0-1,0.3-1.4-0.1
		c0-0.2-0.2-0.3-0.1-0.4c0.3-0.1,0.6,0.3,0.9,0c0.5,0,1-0.1,1.5,0c0.2,0.1,0.6-0.4,0.6,0.1C35.3,48.9,34.5,48.4,34,48.6L34,48.6z
		 M35.2,45.6L35.2,45.6L35.2,45.6L35.2,45.6L35.2,45.6L35.2,45.6z M35.3,46.9c0,0.2,0.2,0.3,0.1,0.5C35.4,47.3,35.3,47.1,35.3,46.9
		L35.3,46.9z M35.9,48.1l-0.1,0c-0.1-0.1-0.1-0.3,0-0.4C35.9,47.9,36,48,35.9,48.1L35.9,48.1z M37,48.6c0,0.1-0.1,0.1-0.2,0
		c-0.6-0.8-0.9-1.6-1.3-2.5l0.1,0C36.1,47,36.5,47.9,37,48.6L37,48.6z M37.7,46.7C37.7,46.7,37.7,46.8,37.7,46.7
		c-0.6,0.1-1-0.3-1.5-0.6l0-0.1C36.8,46.1,37.2,46.5,37.7,46.7L37.7,46.7z M37.2,43.9c0.2,0.1,0.3,0.3,0.3,0.5c0,0.5-0.3,0.9-0.7,1
		c-0.2,0.1-0.6,0.2-0.8,0.1c0.5,0,1-0.2,1.2-0.7L37.2,43.9L37.2,43.9z M36.7,43.9c0.1,0.3,0.3,0.6,0.2,0.9c-0.2,0.4-0.6,0.4-1,0.5
		c-0.2,0-0.3,0-0.5-0.1c0-0.1,0-0.1-0.1-0.2c0.1-0.3-0.5-0.5-0.1-0.8C35.6,43.8,36.4,43.1,36.7,43.9L36.7,43.9z M47.3,42.3
		c-0.2,0.2,0,0.5-0.2,0.7c0,0.4-0.3,0.6-0.6,0.7c-2.5,0.5-4.9-0.3-7.3-0.7c-3.3-0.7-7.3-0.9-10.7-0.2c-1.6,0.3-3.2,0.7-4.7,1.1
		c-1,0.1-2,0.3-2.9,0c-0.7-0.4-0.4-1.3-0.7-2c0-0.5-0.1-0.9-0.2-1.4C20,40.4,20,40.2,20,40c0.3,0,0.6,0.3,1,0.4
		c1.7,0.3,3.3-0.2,4.9-0.5c1.6-0.3,3.2-0.6,4.8-0.7c1.9,0,3.8-0.1,5.6,0.2c0.6,0,1.1,0.2,1.6,0.2c1.2,0.1,2.2,0.5,3.4,0.5
		c0.2,0.1,0.4,0.1,0.6,0.1c1.9,0.3,4,0.8,5.8,0C47.7,40.9,47.4,41.6,47.3,42.3L47.3,42.3z M46.7,39.8c0,0.3-0.3,0.3-0.5,0.4h-0.5
		c-0.1-0.2-0.1-0.4-0.1-0.6C46,39.6,46.4,39.6,46.7,39.8L46.7,39.8z M46.5,39.3c0.2-0.2-0.1-1.5,0.6-0.7c0,0.2,0,0.4-0.1,0.5
		C46.8,39.2,46.6,39.4,46.5,39.3L46.5,39.3z M48.2,39c-0.2,0.4-0.5,0.6-0.9,0.7c0-0.5,0.5-0.9,0.3-1.4c-0.3-0.4-0.8-0.5-1.3-0.4
		c-0.2,0.1-0.1,0.3-0.2,0.5L46,39.1c-0.4,0-0.4-0.4-0.6-0.7c0-0.4,0.2-0.9,0.6-1.1c0.3-0.2,0.9-0.1,1.2,0c0.3,0.1,0.6,0.2,0.7,0.4
		C48.3,38.1,48.2,38.7,48.2,39L48.2,39z"/>
	<polygon fill="#FFFFFF" points="73.7,31.6 73.7,30.9 311.3,30.9 311.3,31.6 73.7,31.6 	"/>
	<path fill-rule="evenodd" clip-rule="evenodd" fill="#FFFFFF" d="M73.7,45.6v-0.2H74c0.2,0,0.4,0,0.6-0.1c0.1-0.1,0.2-0.2,0.3-0.3
		c0-0.1,0.1-0.3,0.1-0.8v-5.5c0-0.4,0-0.7-0.1-0.8c0-0.1-0.1-0.2-0.3-0.3c-0.1-0.1-0.3-0.1-0.6-0.1h-0.3v-0.2h3.7
		c1,0,1.8,0.1,2.4,0.4c0.7,0.3,1.3,0.8,1.7,1.5c0.4,0.7,0.6,1.4,0.6,2.3c0,0.6-0.1,1.1-0.3,1.6c-0.2,0.5-0.4,0.9-0.7,1.2
		c-0.3,0.3-0.6,0.6-1,0.8c-0.4,0.2-0.9,0.3-1.4,0.4c-0.2,0-0.6,0.1-1.2,0.1H73.7L73.7,45.6z M76.9,37.8v6.5c0,0.3,0,0.6,0,0.6
		c0,0.1,0.1,0.1,0.2,0.2c0.1,0.1,0.3,0.1,0.5,0.1c0.7,0,1.2-0.2,1.6-0.7c0.5-0.6,0.7-1.6,0.7-2.9c0-1.1-0.2-1.9-0.5-2.6
		c-0.3-0.5-0.6-0.8-1-1C78.1,37.8,77.6,37.8,76.9,37.8L76.9,37.8z"/>
	<path fill-rule="evenodd" clip-rule="evenodd" fill="#FFFFFF" d="M87.6,42.6h-3.1c0,0.8,0.2,1.4,0.6,1.8c0.3,0.3,0.6,0.5,1,0.5
		c0.2,0,0.5-0.1,0.7-0.2c0.2-0.1,0.4-0.4,0.6-0.7l0.2,0.1c-0.3,0.6-0.7,1.1-1,1.4c-0.4,0.3-0.8,0.4-1.3,0.4c-0.9,0-1.5-0.3-1.9-1
		c-0.4-0.5-0.5-1.2-0.5-2c0-1,0.3-1.7,0.8-2.3c0.5-0.6,1.1-0.9,1.8-0.9c0.6,0,1.1,0.2,1.5,0.7C87.4,40.9,87.6,41.6,87.6,42.6
		L87.6,42.6z M86.1,42.2c0-0.7,0-1.1-0.1-1.4c-0.1-0.2-0.2-0.4-0.3-0.6c-0.1-0.1-0.2-0.1-0.3-0.1c-0.2,0-0.4,0.1-0.5,0.3
		c-0.2,0.4-0.4,0.9-0.4,1.5v0.2H86.1L86.1,42.2z"/>
	<path fill-rule="evenodd" clip-rule="evenodd" fill="#FFFFFF" d="M90.3,45.1v2.1c0,0.3,0,0.5,0.1,0.6c0,0.1,0.1,0.2,0.2,0.2
		c0.1,0.1,0.3,0.1,0.6,0.1v0.2h-3.3v-0.2c0.3,0,0.4-0.1,0.6-0.2c0.1-0.1,0.1-0.3,0.1-0.7v-6.1c0-0.4,0-0.7-0.1-0.8
		c-0.1-0.1-0.3-0.2-0.5-0.2v-0.2h2.4v0.8c0.2-0.3,0.4-0.5,0.6-0.6c0.3-0.2,0.6-0.3,1-0.3c0.4,0,0.8,0.1,1.1,0.4
		c0.3,0.3,0.6,0.6,0.8,1.1c0.2,0.5,0.3,1,0.3,1.5c0,0.6-0.1,1.1-0.3,1.6c-0.2,0.5-0.5,0.8-0.8,1.1c-0.4,0.2-0.7,0.4-1.2,0.4
		c-0.3,0-0.6-0.1-0.9-0.2C90.8,45.5,90.5,45.3,90.3,45.1L90.3,45.1z M90.3,44.4c0.4,0.5,0.7,0.7,1.1,0.7c0.2,0,0.4-0.1,0.5-0.3
		c0.2-0.3,0.3-1,0.3-2c0-1-0.1-1.7-0.3-2c-0.2-0.2-0.4-0.4-0.6-0.4c-0.4,0-0.8,0.3-1,0.9V44.4L90.3,44.4z"/>
	<path fill-rule="evenodd" clip-rule="evenodd" fill="#FFFFFF" d="M98,44.8c-0.7,0.6-1.3,0.9-1.9,0.9c-0.3,0-0.6-0.1-0.8-0.3
		c-0.2-0.2-0.3-0.5-0.3-0.8c0-0.4,0.2-0.8,0.6-1.2c0.4-0.4,1.2-0.8,2.5-1.4v-0.6c0-0.4,0-0.7-0.1-0.8c0-0.1-0.1-0.2-0.3-0.3
		c-0.1-0.1-0.3-0.1-0.4-0.1c-0.3,0-0.5,0.1-0.7,0.2c-0.1,0.1-0.2,0.2-0.2,0.3c0,0.1,0.1,0.2,0.2,0.3c0.2,0.2,0.2,0.3,0.2,0.5
		c0,0.2-0.1,0.4-0.2,0.5c-0.1,0.1-0.3,0.2-0.6,0.2c-0.3,0-0.5-0.1-0.7-0.2c-0.2-0.2-0.3-0.3-0.3-0.5c0-0.3,0.1-0.6,0.3-0.8
		c0.2-0.3,0.6-0.5,1-0.6c0.4-0.1,0.9-0.2,1.3-0.2c0.5,0,1,0.1,1.3,0.3c0.3,0.2,0.5,0.5,0.6,0.7c0.1,0.2,0.1,0.6,0.1,1.2v2.2
		c0,0.3,0,0.4,0,0.5c0,0.1,0.1,0.1,0.1,0.1c0,0,0.1,0.1,0.1,0.1c0.1,0,0.2-0.1,0.3-0.2l0.2,0.1c-0.2,0.3-0.4,0.5-0.6,0.7
		c-0.2,0.1-0.5,0.2-0.7,0.2c-0.3,0-0.6-0.1-0.8-0.2C98.2,45.3,98,45.1,98,44.8L98,44.8z M98,44.3v-1.9c-0.5,0.3-0.9,0.6-1.1,0.9
		c-0.2,0.2-0.2,0.4-0.2,0.7c0,0.2,0.1,0.4,0.2,0.5c0.1,0.1,0.2,0.2,0.4,0.2C97.5,44.7,97.7,44.6,98,44.3L98,44.3z"/>
	<path fill="#FFFFFF" d="M103.1,39.9v1.3c0.4-0.6,0.7-1,1-1.2c0.3-0.2,0.6-0.3,0.8-0.3c0.2,0,0.4,0.1,0.5,0.2
		c0.1,0.1,0.2,0.3,0.2,0.6c0,0.3-0.1,0.5-0.2,0.6c-0.1,0.2-0.3,0.2-0.5,0.2c-0.2,0-0.4-0.1-0.6-0.2c-0.2-0.1-0.3-0.2-0.3-0.2
		c0,0-0.1,0-0.1,0c-0.1,0-0.2,0-0.3,0.1c-0.2,0.1-0.3,0.3-0.4,0.6c-0.1,0.4-0.2,0.8-0.2,1.3v1.3l0,0.3c0,0.2,0,0.4,0,0.4
		c0,0.1,0.1,0.2,0.2,0.2c0.1,0,0.3,0.1,0.5,0.1v0.2h-3.1v-0.2c0.2,0,0.4-0.1,0.5-0.2c0.1-0.1,0.1-0.4,0.1-0.9v-3.2
		c0-0.3,0-0.5,0-0.6c0-0.1-0.1-0.2-0.2-0.3c-0.1-0.1-0.2-0.1-0.4-0.1v-0.2H103.1L103.1,39.9z"/>
	<path fill="#FFFFFF" d="M108.6,37.8v2.1h1.4v0.6h-1.4v3.5c0,0.3,0,0.5,0,0.6c0,0.1,0.1,0.2,0.2,0.2C108.9,45,109,45,109,45
		c0.3,0,0.5-0.2,0.8-0.6l0.2,0.1c-0.3,0.8-0.9,1.2-1.6,1.2c-0.4,0-0.7-0.1-0.9-0.3c-0.2-0.2-0.4-0.4-0.5-0.7c0-0.1-0.1-0.5-0.1-1.1
		v-3.1h-0.7v-0.2c0.5-0.4,1-0.7,1.3-1.1c0.4-0.4,0.7-0.8,1-1.3H108.6L108.6,37.8z"/>
	<path fill="#FFFFFF" d="M112.9,39.9v0.8c0.3-0.3,0.6-0.6,0.9-0.7c0.3-0.1,0.6-0.2,0.9-0.2c0.4,0,0.7,0.1,0.9,0.3
		c0.2,0.2,0.4,0.4,0.6,0.8c0.3-0.4,0.6-0.6,0.9-0.8c0.3-0.2,0.6-0.2,0.9-0.2c0.4,0,0.7,0.1,0.9,0.3c0.2,0.2,0.4,0.4,0.5,0.7
		c0.1,0.3,0.1,0.7,0.1,1.3v2.4c0,0.4,0,0.7,0.1,0.8c0.1,0.1,0.2,0.2,0.5,0.2v0.2h-3v-0.2c0.2,0,0.4-0.1,0.5-0.3
		c0.1-0.1,0.1-0.4,0.1-0.8v-2.5c0-0.5,0-0.8-0.1-1c0-0.1-0.1-0.2-0.2-0.3c-0.1-0.1-0.2-0.1-0.3-0.1c-0.2,0-0.4,0.1-0.5,0.2
		c-0.2,0.1-0.4,0.3-0.5,0.6v3.1c0,0.4,0,0.7,0.1,0.8c0.1,0.2,0.3,0.2,0.5,0.3v0.2h-3v-0.2c0.2,0,0.3,0,0.4-0.1
		c0.1-0.1,0.2-0.2,0.2-0.3c0-0.1,0-0.3,0-0.7v-2.5c0-0.5,0-0.8-0.1-1c0-0.1-0.1-0.2-0.2-0.3c-0.1-0.1-0.2-0.1-0.3-0.1
		c-0.2,0-0.3,0-0.4,0.1c-0.2,0.1-0.4,0.3-0.6,0.7v3.1c0,0.4,0,0.7,0.1,0.8c0.1,0.1,0.2,0.2,0.5,0.2v0.2h-3v-0.2
		c0.2,0,0.4-0.1,0.5-0.2c0.1-0.1,0.1-0.4,0.1-0.8v-3.2c0-0.4,0-0.7-0.1-0.8c-0.1-0.1-0.2-0.2-0.5-0.2v-0.2H112.9L112.9,39.9z"/>
	<path fill-rule="evenodd" clip-rule="evenodd" fill="#FFFFFF" d="M125.5,42.6h-3.1c0,0.8,0.2,1.4,0.6,1.8c0.3,0.3,0.6,0.5,1,0.5
		c0.2,0,0.5-0.1,0.7-0.2c0.2-0.1,0.4-0.4,0.6-0.7l0.2,0.1c-0.3,0.6-0.7,1.1-1,1.4c-0.4,0.3-0.8,0.4-1.3,0.4c-0.9,0-1.5-0.3-1.9-1
		c-0.4-0.5-0.5-1.2-0.5-2c0-1,0.3-1.7,0.8-2.3c0.5-0.6,1.1-0.9,1.8-0.9c0.6,0,1.1,0.2,1.5,0.7C125.2,40.9,125.4,41.6,125.5,42.6
		L125.5,42.6z M124,42.2c0-0.7,0-1.1-0.1-1.4c-0.1-0.2-0.2-0.4-0.3-0.6c-0.1-0.1-0.2-0.1-0.3-0.1c-0.2,0-0.4,0.1-0.5,0.3
		c-0.2,0.4-0.4,0.9-0.4,1.5v0.2H124L124,42.2z"/>
	<path fill="#FFFFFF" d="M128.4,39.9v0.7c0.3-0.3,0.6-0.5,0.8-0.7c0.3-0.1,0.6-0.2,0.9-0.2c0.4,0,0.7,0.1,0.9,0.3
		c0.2,0.2,0.4,0.5,0.5,0.8c0.1,0.2,0.1,0.7,0.1,1.3v2.2c0,0.4,0,0.7,0.1,0.8c0.1,0.1,0.2,0.2,0.5,0.2v0.2h-2.9v-0.2
		c0.2,0,0.4-0.1,0.5-0.3c0.1-0.1,0.1-0.4,0.1-0.8v-2.6c0-0.5,0-0.8-0.1-0.9c0-0.1-0.1-0.2-0.2-0.3c-0.1-0.1-0.2-0.1-0.3-0.1
		c-0.4,0-0.7,0.3-1,0.8v3.1c0,0.4,0,0.7,0.1,0.8c0.1,0.1,0.2,0.2,0.4,0.2v0.2h-2.9v-0.2c0.2,0,0.4-0.1,0.5-0.2
		c0.1-0.1,0.1-0.4,0.1-0.8v-3.2c0-0.4,0-0.7-0.1-0.8c-0.1-0.1-0.2-0.2-0.5-0.2v-0.2H128.4L128.4,39.9z"/>
	<path fill="#FFFFFF" d="M134.9,37.8v2.1h1.4v0.6h-1.4v3.5c0,0.3,0,0.5,0,0.6c0,0.1,0.1,0.2,0.2,0.2c0.1,0.1,0.1,0.1,0.2,0.1
		c0.3,0,0.5-0.2,0.8-0.6l0.2,0.1c-0.3,0.8-0.9,1.2-1.6,1.2c-0.4,0-0.7-0.1-0.9-0.3c-0.2-0.2-0.4-0.4-0.5-0.7c0-0.1-0.1-0.5-0.1-1.1
		v-3.1h-0.7v-0.2c0.5-0.4,1-0.7,1.3-1.1c0.4-0.4,0.7-0.8,1-1.3H134.9L134.9,37.8z"/>
	<path fill-rule="evenodd" clip-rule="evenodd" fill="#FFFFFF" d="M142.3,39.7c0.5,0,1,0.1,1.4,0.4c0.4,0.3,0.8,0.6,1,1.1
		c0.2,0.5,0.3,1,0.3,1.6c0,0.8-0.2,1.5-0.6,2c-0.5,0.7-1.2,1-2.1,1c-0.9,0-1.5-0.3-2-0.9c-0.5-0.6-0.7-1.3-0.7-2.1
		c0-0.8,0.2-1.5,0.7-2.1C140.8,40,141.4,39.7,142.3,39.7L142.3,39.7z M142.3,40.2c-0.2,0-0.4,0.1-0.5,0.2c-0.1,0.2-0.2,0.5-0.3,0.9
		c0,0.5-0.1,1.1-0.1,1.9c0,0.4,0,0.8,0.1,1.2c0,0.3,0.1,0.5,0.3,0.7c0.1,0.2,0.3,0.2,0.5,0.2c0.2,0,0.3-0.1,0.5-0.2
		c0.2-0.1,0.3-0.3,0.3-0.6c0.1-0.4,0.1-1.2,0.1-2.4c0-0.7,0-1.2-0.1-1.4c-0.1-0.3-0.2-0.5-0.3-0.6C142.6,40.2,142.5,40.2,142.3,40.2
		L142.3,40.2z"/>
	<path fill="#FFFFFF" d="M148,40.5v4c0,0.4,0,0.6,0.1,0.7c0.1,0.2,0.4,0.2,0.7,0.2v0.2h-3.4v-0.2c0.3,0,0.4,0,0.5-0.1
		c0.1-0.1,0.2-0.1,0.2-0.2c0-0.1,0.1-0.3,0.1-0.6v-4h-0.8v-0.6h0.8v-0.4l0-0.3c0-0.6,0.2-1.1,0.6-1.5c0.4-0.4,1-0.6,1.8-0.6
		c0.5,0,0.9,0.1,1.1,0.3c0.2,0.2,0.4,0.4,0.4,0.6c0,0.2-0.1,0.3-0.2,0.5c-0.2,0.1-0.4,0.2-0.6,0.2c-0.2,0-0.4-0.1-0.5-0.2
		c-0.1-0.1-0.2-0.2-0.2-0.4c0,0,0-0.1,0-0.2c0-0.1,0-0.1,0-0.2c0-0.1,0-0.1-0.1-0.2c-0.1-0.1-0.1-0.1-0.2-0.1c-0.1,0-0.2,0-0.3,0.1
		c-0.1,0.1-0.1,0.3-0.1,0.5l0,1.1v0.7h0.8v0.6H148L148,40.5z"/>
	<path fill="#FFFFFF" d="M154.8,37.8v2.1h1.4v0.6h-1.4v3.5c0,0.3,0,0.5,0,0.6c0,0.1,0.1,0.2,0.2,0.2c0.1,0.1,0.1,0.1,0.2,0.1
		c0.3,0,0.5-0.2,0.8-0.6l0.2,0.1c-0.3,0.8-0.9,1.2-1.6,1.2c-0.4,0-0.7-0.1-0.9-0.3c-0.2-0.2-0.4-0.4-0.5-0.7c0-0.1-0.1-0.5-0.1-1.1
		v-3.1h-0.7v-0.2c0.5-0.4,1-0.7,1.3-1.1c0.4-0.4,0.7-0.8,1-1.3H154.8L154.8,37.8z"/>
	<path fill="#FFFFFF" d="M159.1,37.3v3.3c0.3-0.3,0.6-0.6,0.9-0.7c0.3-0.1,0.5-0.2,0.8-0.2c0.4,0,0.7,0.1,0.9,0.3
		c0.3,0.2,0.4,0.4,0.5,0.7c0.1,0.3,0.1,0.7,0.1,1.4v2.2c0,0.4,0,0.7,0.1,0.8c0.1,0.1,0.2,0.2,0.5,0.2v0.2h-2.9v-0.2
		c0.2,0,0.4-0.1,0.5-0.2c0.1-0.1,0.1-0.4,0.1-0.8v-2.6c0-0.5,0-0.8-0.1-0.9c0-0.1-0.1-0.2-0.2-0.3c-0.1-0.1-0.2-0.1-0.3-0.1
		c-0.2,0-0.3,0.1-0.5,0.2c-0.2,0.1-0.3,0.3-0.5,0.6v3.1c0,0.4,0,0.7,0.1,0.8c0.1,0.1,0.2,0.2,0.5,0.3v0.2h-2.9v-0.2
		c0.2,0,0.4-0.1,0.5-0.2c0.1-0.1,0.1-0.4,0.1-0.8v-5.8c0-0.4,0-0.7-0.1-0.8c-0.1-0.1-0.2-0.2-0.5-0.2v-0.2H159.1L159.1,37.3z"/>
	<path fill-rule="evenodd" clip-rule="evenodd" fill="#FFFFFF" d="M168.3,42.6h-3.1c0,0.8,0.2,1.4,0.6,1.8c0.3,0.3,0.6,0.5,1,0.5
		c0.2,0,0.5-0.1,0.7-0.2c0.2-0.1,0.4-0.4,0.6-0.7l0.2,0.1c-0.3,0.6-0.7,1.1-1,1.4c-0.4,0.3-0.8,0.4-1.3,0.4c-0.9,0-1.5-0.3-1.9-1
		c-0.4-0.5-0.5-1.2-0.5-2c0-1,0.3-1.7,0.8-2.3c0.5-0.6,1.1-0.9,1.8-0.9c0.6,0,1.1,0.2,1.5,0.7C168.1,40.9,168.3,41.6,168.3,42.6
		L168.3,42.6z M166.8,42.2c0-0.7,0-1.1-0.1-1.4c-0.1-0.2-0.2-0.4-0.3-0.6c-0.1-0.1-0.2-0.1-0.3-0.1c-0.2,0-0.4,0.1-0.5,0.3
		c-0.2,0.4-0.4,0.9-0.4,1.5v0.2H166.8L166.8,42.2z"/>
	<path fill-rule="evenodd" clip-rule="evenodd" fill="#FFFFFF" d="M174.1,41.9v2.3c0,0.5,0,0.7,0.1,0.9c0.1,0.1,0.2,0.2,0.3,0.3
		c0.1,0.1,0.4,0.1,0.8,0.1v0.2H171v-0.2c0.4,0,0.6,0,0.8-0.1c0.1-0.1,0.2-0.2,0.3-0.3c0.1-0.1,0.1-0.4,0.1-0.8v-5.4
		c0-0.5,0-0.7-0.1-0.8c-0.1-0.1-0.1-0.2-0.3-0.3c-0.1-0.1-0.4-0.1-0.8-0.1v-0.2h3.6c1.2,0,2.1,0.2,2.6,0.6c0.5,0.4,0.8,1,0.8,1.6
		c0,0.5-0.2,1-0.5,1.4c-0.3,0.4-0.8,0.6-1.4,0.8C175.7,41.8,175,41.9,174.1,41.9L174.1,41.9z M174.1,37.8v3.6c0.1,0,0.2,0,0.3,0
		c0.5,0,0.9-0.1,1.2-0.4c0.3-0.3,0.4-0.8,0.4-1.4c0-0.6-0.1-1.1-0.4-1.4c-0.3-0.3-0.7-0.4-1.2-0.4H174.1L174.1,37.8z"/>
	<path fill="#FFFFFF" d="M180.6,39.9v1.3c0.4-0.6,0.7-1,1-1.2c0.3-0.2,0.6-0.3,0.8-0.3c0.2,0,0.4,0.1,0.5,0.2
		c0.1,0.1,0.2,0.3,0.2,0.6c0,0.3-0.1,0.5-0.2,0.6c-0.1,0.2-0.3,0.2-0.5,0.2c-0.2,0-0.4-0.1-0.6-0.2c-0.2-0.1-0.3-0.2-0.3-0.2
		c0,0-0.1,0-0.1,0c-0.1,0-0.2,0-0.3,0.1c-0.2,0.1-0.3,0.3-0.4,0.6c-0.1,0.4-0.2,0.8-0.2,1.3v1.3l0,0.3c0,0.2,0,0.4,0,0.4
		c0,0.1,0.1,0.2,0.2,0.2c0.1,0,0.3,0.1,0.5,0.1v0.2h-3.1v-0.2c0.2,0,0.4-0.1,0.5-0.2c0.1-0.1,0.1-0.4,0.1-0.9v-3.2
		c0-0.3,0-0.5,0-0.6c0-0.1-0.1-0.2-0.2-0.3c-0.1-0.1-0.2-0.1-0.4-0.1v-0.2H180.6L180.6,39.9z"/>
	<path fill-rule="evenodd" clip-rule="evenodd" fill="#FFFFFF" d="M185.1,37.1c0.3,0,0.5,0.1,0.7,0.3c0.2,0.2,0.3,0.4,0.3,0.7
		c0,0.3-0.1,0.5-0.3,0.7c-0.2,0.2-0.4,0.3-0.7,0.3s-0.5-0.1-0.7-0.3c-0.2-0.2-0.3-0.4-0.3-0.7c0-0.3,0.1-0.5,0.3-0.7
		C184.6,37.2,184.8,37.1,185.1,37.1L185.1,37.1z M185.9,39.9v4.5c0,0.4,0,0.7,0.1,0.8c0.1,0.1,0.3,0.2,0.6,0.2v0.2h-3.1v-0.2
		c0.3,0,0.4-0.1,0.6-0.2c0.1-0.1,0.1-0.3,0.1-0.7v-3.4c0-0.4,0-0.7-0.1-0.8c-0.1-0.1-0.3-0.2-0.5-0.2v-0.2H185.9L185.9,39.9z"/>
	<path fill="#FFFFFF" d="M189.5,39.9v0.8c0.3-0.3,0.6-0.6,0.9-0.7c0.3-0.1,0.6-0.2,0.9-0.2c0.4,0,0.7,0.1,0.9,0.3
		c0.2,0.2,0.4,0.4,0.6,0.8c0.3-0.4,0.6-0.6,0.9-0.8c0.3-0.2,0.6-0.2,0.9-0.2c0.4,0,0.7,0.1,0.9,0.3c0.2,0.2,0.4,0.4,0.5,0.7
		c0.1,0.3,0.1,0.7,0.1,1.3v2.3c0,0.4,0,0.7,0.1,0.8c0.1,0.1,0.2,0.2,0.5,0.2v0.2h-3v-0.2c0.2,0,0.4-0.1,0.5-0.3
		c0.1-0.1,0.1-0.4,0.1-0.8v-2.5c0-0.5,0-0.8-0.1-1s-0.1-0.2-0.2-0.3c-0.1-0.1-0.2-0.1-0.3-0.1c-0.2,0-0.4,0.1-0.5,0.2
		c-0.2,0.1-0.4,0.3-0.5,0.6v3.1c0,0.4,0,0.7,0.1,0.8c0.1,0.2,0.3,0.2,0.5,0.3v0.2h-3v-0.2c0.2,0,0.3,0,0.4-0.1
		c0.1-0.1,0.2-0.2,0.2-0.3c0-0.1,0-0.3,0-0.7v-2.5c0-0.5,0-0.8-0.1-1c0-0.1-0.1-0.2-0.2-0.3c-0.1-0.1-0.2-0.1-0.3-0.1
		c-0.2,0-0.3,0-0.4,0.1c-0.2,0.1-0.4,0.3-0.6,0.7v3.1c0,0.4,0,0.7,0.1,0.8c0.1,0.1,0.2,0.2,0.5,0.2v0.2h-3v-0.2
		c0.2,0,0.4-0.1,0.5-0.2c0.1-0.1,0.1-0.4,0.1-0.8v-3.2c0-0.4,0-0.7-0.1-0.8c-0.1-0.1-0.2-0.2-0.5-0.2v-0.2H189.5L189.5,39.9z"/>
	<path fill-rule="evenodd" clip-rule="evenodd" fill="#FFFFFF" d="M201.9,42.6h-3.1c0,0.8,0.2,1.4,0.6,1.8c0.3,0.3,0.6,0.5,1,0.5
		c0.2,0,0.5-0.1,0.7-0.2c0.2-0.1,0.4-0.4,0.6-0.7l0.2,0.1c-0.3,0.6-0.7,1.1-1,1.4c-0.4,0.3-0.8,0.4-1.3,0.4c-0.9,0-1.5-0.3-1.9-1
		c-0.4-0.5-0.5-1.2-0.5-2c0-1,0.3-1.7,0.8-2.3c0.5-0.6,1.1-0.9,1.8-0.9c0.6,0,1.1,0.2,1.5,0.7C201.6,40.9,201.9,41.6,201.9,42.6
		L201.9,42.6z M200.4,42.2c0-0.7,0-1.1-0.1-1.4c-0.1-0.2-0.2-0.4-0.3-0.6c-0.1-0.1-0.2-0.1-0.3-0.1c-0.2,0-0.4,0.1-0.5,0.3
		c-0.2,0.4-0.4,0.9-0.4,1.5v0.2H200.4L200.4,42.2z"/>
	<path fill="#FFFFFF" d="M210.5,42.8l2.3-5.5h3.4v0.2h-0.3c-0.2,0-0.4,0-0.6,0.1c-0.1,0.1-0.2,0.2-0.2,0.3c0,0.1-0.1,0.4-0.1,0.8
		v5.5c0,0.4,0,0.7,0.1,0.8c0,0.1,0.1,0.2,0.3,0.3c0.1,0.1,0.3,0.1,0.6,0.1h0.3v0.2h-4.3v-0.2h0.3c0.2,0,0.4,0,0.6-0.1
		c0.1-0.1,0.2-0.2,0.2-0.3c0-0.1,0.1-0.4,0.1-0.8V38l-3.2,7.6h-0.1l-3.2-7.5V44c0,0.4,0,0.7,0,0.8c0.1,0.2,0.2,0.4,0.3,0.5
		c0.2,0.1,0.5,0.2,0.8,0.2v0.2h-2.8v-0.2h0.1c0.2,0,0.4,0,0.5-0.1c0.2-0.1,0.3-0.2,0.4-0.3c0.1-0.1,0.1-0.3,0.2-0.4c0,0,0-0.3,0-0.6
		v-5.3c0-0.4,0-0.7-0.1-0.8c0-0.1-0.1-0.2-0.3-0.3c-0.1-0.1-0.3-0.1-0.6-0.1h-0.3v-0.2h3.4L210.5,42.8L210.5,42.8z"/>
	<path fill-rule="evenodd" clip-rule="evenodd" fill="#FFFFFF" d="M218,37.1c0.3,0,0.5,0.1,0.7,0.3c0.2,0.2,0.3,0.4,0.3,0.7
		c0,0.3-0.1,0.5-0.3,0.7c-0.2,0.2-0.4,0.3-0.7,0.3s-0.5-0.1-0.7-0.3c-0.2-0.2-0.3-0.4-0.3-0.7c0-0.3,0.1-0.5,0.3-0.7
		C217.5,37.2,217.7,37.1,218,37.1L218,37.1z M218.9,39.9v4.5c0,0.4,0,0.7,0.1,0.8c0.1,0.1,0.3,0.2,0.6,0.2v0.2h-3.1v-0.2
		c0.3,0,0.4-0.1,0.6-0.2c0.1-0.1,0.1-0.3,0.1-0.7v-3.4c0-0.4,0-0.7-0.1-0.8c-0.1-0.1-0.3-0.2-0.5-0.2v-0.2H218.9L218.9,39.9z"/>
	<path fill="#FFFFFF" d="M222.3,39.9v0.7c0.3-0.3,0.6-0.6,0.8-0.7c0.3-0.1,0.6-0.2,0.9-0.2c0.4,0,0.7,0.1,0.9,0.3
		c0.2,0.2,0.4,0.5,0.5,0.8c0.1,0.2,0.1,0.7,0.1,1.3v2.2c0,0.4,0,0.7,0.1,0.8c0.1,0.1,0.2,0.2,0.5,0.2v0.2h-2.9v-0.2
		c0.2,0,0.4-0.1,0.5-0.3c0.1-0.1,0.1-0.4,0.1-0.8v-2.6c0-0.5,0-0.8-0.1-0.9c0-0.1-0.1-0.2-0.2-0.3c-0.1-0.1-0.2-0.1-0.3-0.1
		c-0.4,0-0.7,0.3-1,0.8v3.1c0,0.4,0,0.7,0.1,0.8c0.1,0.1,0.2,0.2,0.4,0.2v0.2H220v-0.2c0.2,0,0.4-0.1,0.5-0.2
		c0.1-0.1,0.1-0.4,0.1-0.8v-3.2c0-0.4,0-0.7-0.1-0.8c-0.1-0.1-0.2-0.2-0.5-0.2v-0.2H222.3L222.3,39.9z"/>
	<path fill-rule="evenodd" clip-rule="evenodd" fill="#FFFFFF" d="M228.1,37.1c0.3,0,0.5,0.1,0.7,0.3c0.2,0.2,0.3,0.4,0.3,0.7
		c0,0.3-0.1,0.5-0.3,0.7c-0.2,0.2-0.4,0.3-0.7,0.3s-0.5-0.1-0.7-0.3c-0.2-0.2-0.3-0.4-0.3-0.7c0-0.3,0.1-0.5,0.3-0.7
		C227.6,37.2,227.8,37.1,228.1,37.1L228.1,37.1z M228.9,39.9v4.5c0,0.4,0,0.7,0.1,0.8c0.1,0.1,0.3,0.2,0.6,0.2v0.2h-3.1v-0.2
		c0.3,0,0.4-0.1,0.6-0.2c0.1-0.1,0.1-0.3,0.1-0.7v-3.4c0-0.4,0-0.7-0.1-0.8c-0.1-0.1-0.3-0.2-0.5-0.2v-0.2H228.9L228.9,39.9z"/>
	<path fill="#FFFFFF" d="M233.7,39.7l0.1,2h-0.2c-0.3-0.6-0.5-1-0.8-1.2c-0.3-0.2-0.5-0.3-0.8-0.3c-0.2,0-0.3,0.1-0.4,0.2
		c-0.1,0.1-0.2,0.2-0.2,0.4c0,0.1,0,0.2,0.1,0.3c0.1,0.2,0.5,0.5,1.1,0.9c0.6,0.4,1,0.8,1.2,1c0.2,0.3,0.3,0.6,0.3,1
		c0,0.3-0.1,0.6-0.2,0.9c-0.2,0.3-0.4,0.5-0.7,0.7c-0.3,0.2-0.6,0.2-1,0.2c-0.3,0-0.6-0.1-1.1-0.3c-0.1,0-0.2-0.1-0.3-0.1
		c-0.1,0-0.2,0.1-0.3,0.3h-0.2l-0.1-2.1h0.2c0.2,0.5,0.4,0.9,0.8,1.2c0.3,0.3,0.6,0.4,0.9,0.4c0.2,0,0.4-0.1,0.5-0.2
		c0.1-0.1,0.2-0.3,0.2-0.4c0-0.2-0.1-0.4-0.2-0.5c-0.1-0.1-0.4-0.4-0.8-0.7c-0.6-0.4-1-0.8-1.2-1c-0.3-0.3-0.4-0.7-0.4-1.1
		c0-0.4,0.2-0.8,0.5-1.2c0.3-0.4,0.7-0.5,1.3-0.5c0.3,0,0.6,0.1,0.9,0.2c0.1,0.1,0.2,0.1,0.3,0.1c0.1,0,0.1,0,0.2,0
		c0,0,0.1-0.1,0.2-0.3H233.7L233.7,39.7z"/>
	<path fill="#FFFFFF" d="M236.9,37.8v2.1h1.4v0.6h-1.4v3.5c0,0.3,0,0.5,0,0.6c0,0.1,0.1,0.2,0.2,0.2c0.1,0.1,0.1,0.1,0.2,0.1
		c0.3,0,0.5-0.2,0.8-0.6l0.2,0.1c-0.3,0.8-0.9,1.2-1.6,1.2c-0.4,0-0.7-0.1-0.9-0.3c-0.2-0.2-0.4-0.4-0.5-0.7c0-0.1-0.1-0.5-0.1-1.1
		v-3.1h-0.7v-0.2c0.5-0.4,1-0.7,1.3-1.1c0.4-0.4,0.7-0.8,1-1.3H236.9L236.9,37.8z"/>
	<path fill-rule="evenodd" clip-rule="evenodd" fill="#FFFFFF" d="M243.4,42.6h-3.1c0,0.8,0.2,1.4,0.6,1.8c0.3,0.3,0.6,0.5,1,0.5
		c0.2,0,0.5-0.1,0.7-0.2c0.2-0.1,0.4-0.4,0.6-0.7l0.2,0.1c-0.3,0.6-0.7,1.1-1,1.4c-0.4,0.3-0.8,0.4-1.3,0.4c-0.9,0-1.5-0.3-1.9-1
		c-0.4-0.5-0.5-1.2-0.5-2c0-1,0.3-1.7,0.8-2.3c0.5-0.6,1.1-0.9,1.8-0.9c0.6,0,1.1,0.2,1.5,0.7C243.1,40.9,243.3,41.6,243.4,42.6
		L243.4,42.6z M241.9,42.2c0-0.7,0-1.1-0.1-1.4c-0.1-0.2-0.2-0.4-0.3-0.6c-0.1-0.1-0.2-0.1-0.3-0.1c-0.2,0-0.4,0.1-0.5,0.3
		c-0.2,0.4-0.4,0.9-0.4,1.5v0.2H241.9L241.9,42.2z"/>
	<path fill="#FFFFFF" d="M246.1,39.9v1.3c0.4-0.6,0.7-1,1-1.2c0.3-0.2,0.6-0.3,0.8-0.3c0.2,0,0.4,0.1,0.5,0.2
		c0.1,0.1,0.2,0.3,0.2,0.6c0,0.3-0.1,0.5-0.2,0.6c-0.1,0.2-0.3,0.2-0.5,0.2c-0.2,0-0.4-0.1-0.6-0.2c-0.2-0.1-0.3-0.2-0.3-0.2
		c0,0-0.1,0-0.1,0c-0.1,0-0.2,0-0.3,0.1c-0.2,0.1-0.3,0.3-0.4,0.6c-0.1,0.4-0.2,0.8-0.2,1.3v1.3l0,0.3c0,0.2,0,0.4,0,0.4
		c0,0.1,0.1,0.2,0.2,0.2c0.1,0,0.3,0.1,0.5,0.1v0.2h-3.1v-0.2c0.2,0,0.4-0.1,0.5-0.2c0.1-0.1,0.1-0.4,0.1-0.9v-3.2
		c0-0.3,0-0.5,0-0.6c0-0.1-0.1-0.2-0.2-0.3c-0.1-0.1-0.2-0.1-0.4-0.1v-0.2H246.1L246.1,39.9z"/>
	<path fill-rule="evenodd" clip-rule="evenodd" fill="#FFFFFF" d="M254.7,44.8c-0.7,0.6-1.3,0.9-1.9,0.9c-0.3,0-0.6-0.1-0.8-0.3
		c-0.2-0.2-0.3-0.5-0.3-0.8c0-0.4,0.2-0.8,0.6-1.2c0.4-0.4,1.2-0.8,2.5-1.4v-0.6c0-0.4,0-0.7-0.1-0.8c0-0.1-0.1-0.2-0.3-0.3
		c-0.1-0.1-0.3-0.1-0.4-0.1c-0.3,0-0.5,0.1-0.7,0.2c-0.1,0.1-0.2,0.2-0.2,0.3c0,0.1,0.1,0.2,0.2,0.3c0.2,0.2,0.2,0.3,0.2,0.5
		c0,0.2-0.1,0.4-0.2,0.5c-0.1,0.1-0.3,0.2-0.6,0.2c-0.3,0-0.5-0.1-0.7-0.2c-0.2-0.2-0.3-0.3-0.3-0.5c0-0.3,0.1-0.6,0.3-0.8
		c0.2-0.3,0.6-0.5,1-0.6c0.4-0.1,0.9-0.2,1.3-0.2c0.5,0,1,0.1,1.3,0.3c0.3,0.2,0.5,0.5,0.6,0.7c0.1,0.2,0.1,0.6,0.1,1.2v2.2
		c0,0.3,0,0.4,0,0.5c0,0.1,0.1,0.1,0.1,0.1c0,0,0.1,0,0.1,0c0.1,0,0.2-0.1,0.3-0.2l0.2,0.1c-0.2,0.3-0.4,0.5-0.6,0.7
		c-0.2,0.1-0.5,0.2-0.7,0.2c-0.3,0-0.6-0.1-0.8-0.2C254.9,45.3,254.8,45.1,254.7,44.8L254.7,44.8z M254.7,44.3v-1.9
		c-0.5,0.3-0.9,0.6-1.1,0.9c-0.2,0.2-0.2,0.4-0.2,0.7c0,0.2,0.1,0.4,0.2,0.5c0.1,0.1,0.2,0.2,0.4,0.2
		C254.2,44.7,254.5,44.6,254.7,44.3L254.7,44.3z"/>
	<path fill="#FFFFFF" d="M259.8,39.9v0.7c0.3-0.3,0.6-0.6,0.8-0.7c0.3-0.1,0.6-0.2,0.9-0.2c0.4,0,0.7,0.1,0.9,0.3
		c0.2,0.2,0.4,0.5,0.5,0.8c0.1,0.2,0.1,0.7,0.1,1.3v2.2c0,0.4,0,0.7,0.1,0.8c0.1,0.1,0.2,0.2,0.5,0.2v0.2h-2.9v-0.2
		c0.2,0,0.4-0.1,0.5-0.3c0.1-0.1,0.1-0.4,0.1-0.8v-2.6c0-0.5,0-0.8-0.1-0.9c0-0.1-0.1-0.2-0.2-0.3c-0.1-0.1-0.2-0.1-0.3-0.1
		c-0.4,0-0.7,0.3-1,0.8v3.1c0,0.4,0,0.7,0.1,0.8c0.1,0.1,0.2,0.2,0.4,0.2v0.2h-2.9v-0.2c0.2,0,0.4-0.1,0.5-0.2
		c0.1-0.1,0.1-0.4,0.1-0.8v-3.2c0-0.4,0-0.7-0.1-0.8c-0.1-0.1-0.2-0.2-0.5-0.2v-0.2H259.8L259.8,39.9z"/>
	<path fill-rule="evenodd" clip-rule="evenodd" fill="#FFFFFF" d="M269.4,37.3v6.6c0,0.4,0,0.7,0,0.8c0,0.1,0.1,0.2,0.2,0.3
		c0.1,0.1,0.3,0.1,0.5,0.1v0.2l-2.4,0.5v-0.9c-0.3,0.4-0.6,0.6-0.8,0.7c-0.2,0.1-0.5,0.2-0.8,0.2c-0.7,0-1.3-0.3-1.7-1
		c-0.3-0.5-0.5-1.2-0.5-2c0-0.6,0.1-1.2,0.3-1.7c0.2-0.5,0.5-0.9,0.9-1.1c0.4-0.2,0.8-0.4,1.2-0.4c0.3,0,0.5,0.1,0.7,0.2
		c0.2,0.1,0.4,0.3,0.7,0.6v-1.7c0-0.4,0-0.7-0.1-0.8c0-0.1-0.1-0.2-0.2-0.3c-0.1-0.1-0.3-0.1-0.6-0.1v-0.3H269.4L269.4,37.3z
		 M267.7,41.2c-0.3-0.6-0.7-0.9-1.1-0.9c-0.2,0-0.3,0-0.4,0.1c-0.2,0.1-0.3,0.4-0.4,0.7c-0.1,0.3-0.1,0.8-0.1,1.5
		c0,0.7,0.1,1.3,0.2,1.6c0.1,0.3,0.3,0.6,0.4,0.8c0.1,0.1,0.2,0.1,0.4,0.1c0.4,0,0.7-0.3,1-0.8V41.2L267.7,41.2z"/>
	<path fill-rule="evenodd" clip-rule="evenodd" fill="#FFFFFF" d="M281.1,37.1V40h-0.2c-0.2-0.8-0.5-1.3-1-1.7
		c-0.5-0.4-1-0.6-1.7-0.6c-0.5,0-1,0.2-1.4,0.4c-0.4,0.3-0.8,0.7-1,1.2c-0.3,0.6-0.4,1.3-0.4,2.1c0,0.7,0.1,1.4,0.3,2
		c0.2,0.6,0.5,1.1,0.9,1.4c0.4,0.3,0.9,0.5,1.6,0.5c0.5,0,1-0.1,1.4-0.3c0.4-0.2,0.9-0.6,1.4-1.2v0.7c-0.5,0.5-1,0.8-1.5,1.1
		c-0.5,0.2-1.1,0.3-1.8,0.3c-0.9,0-1.7-0.2-2.4-0.5c-0.7-0.4-1.2-0.9-1.6-1.5c-0.4-0.7-0.6-1.4-0.6-2.1c0-0.8,0.2-1.5,0.6-2.3
		c0.4-0.7,1-1.3,1.7-1.7c0.7-0.4,1.5-0.6,2.3-0.6c0.6,0,1.2,0.1,1.9,0.4c0.4,0.1,0.6,0.2,0.7,0.2c0.1,0,0.2,0,0.3-0.1
		c0.1-0.1,0.2-0.3,0.2-0.5H281.1L281.1,37.1z"/>
	<path fill-rule="evenodd" clip-rule="evenodd" fill="#FFFFFF" d="M284.5,44.8c-0.7,0.6-1.3,0.9-1.9,0.9c-0.3,0-0.6-0.1-0.8-0.3
		c-0.2-0.2-0.3-0.5-0.3-0.8c0-0.4,0.2-0.8,0.6-1.2c0.4-0.4,1.2-0.8,2.5-1.4v-0.6c0-0.4,0-0.7-0.1-0.8c0-0.1-0.1-0.2-0.3-0.3
		c-0.1-0.1-0.3-0.1-0.4-0.1c-0.3,0-0.5,0.1-0.7,0.2c-0.1,0.1-0.2,0.2-0.2,0.3c0,0.1,0.1,0.2,0.2,0.3c0.2,0.2,0.2,0.3,0.2,0.5
		c0,0.2-0.1,0.4-0.2,0.5c-0.1,0.1-0.3,0.2-0.6,0.2c-0.3,0-0.5-0.1-0.7-0.2c-0.2-0.2-0.3-0.3-0.3-0.5c0-0.3,0.1-0.6,0.3-0.8
		c0.2-0.3,0.6-0.5,1-0.6c0.4-0.1,0.9-0.2,1.3-0.2c0.5,0,1,0.1,1.3,0.3c0.3,0.2,0.5,0.5,0.6,0.7c0.1,0.2,0.1,0.6,0.1,1.2v2.2
		c0,0.3,0,0.4,0,0.5c0,0.1,0.1,0.1,0.1,0.1c0,0,0.1,0,0.1,0c0.1,0,0.2-0.1,0.3-0.2l0.2,0.1c-0.2,0.3-0.4,0.5-0.6,0.7
		c-0.2,0.1-0.5,0.2-0.7,0.2c-0.3,0-0.6-0.1-0.8-0.2C284.6,45.3,284.5,45.1,284.5,44.8L284.5,44.8z M284.5,44.3v-1.9
		c-0.5,0.3-0.9,0.6-1.1,0.9c-0.2,0.2-0.2,0.4-0.2,0.7c0,0.2,0.1,0.4,0.2,0.5c0.1,0.1,0.2,0.2,0.4,0.2
		C283.9,44.7,284.2,44.6,284.5,44.3L284.5,44.3z"/>
	<path fill-rule="evenodd" clip-rule="evenodd" fill="#FFFFFF" d="M289.2,37.3v3.2c0.5-0.5,1-0.7,1.6-0.7c0.4,0,0.8,0.1,1.1,0.3
		c0.3,0.2,0.6,0.6,0.8,1s0.3,0.9,0.3,1.5c0,0.6-0.1,1.2-0.4,1.7c-0.2,0.5-0.6,0.9-1,1.2c-0.4,0.3-0.9,0.4-1.4,0.4
		c-0.3,0-0.6-0.1-0.8-0.1s-0.5-0.3-0.7-0.5l-1,0.6h-0.2v-7.3c0-0.3,0-0.5,0-0.6c0-0.1-0.1-0.2-0.2-0.3c-0.1-0.1-0.2-0.1-0.4-0.1
		v-0.2H289.2L289.2,37.3z M289.2,41v2.6c0,0.5,0,0.9,0,1c0,0.2,0.1,0.4,0.3,0.6c0.2,0.1,0.4,0.2,0.6,0.2c0.2,0,0.4-0.1,0.5-0.2
		c0.2-0.1,0.3-0.4,0.4-0.7c0.1-0.4,0.2-1,0.2-1.9c0-0.9-0.1-1.5-0.3-1.8c-0.2-0.2-0.4-0.4-0.6-0.4C289.8,40.4,289.5,40.6,289.2,41
		L289.2,41z"/>
	<path fill-rule="evenodd" clip-rule="evenodd" fill="#FFFFFF" d="M294.8,37.1c0.3,0,0.5,0.1,0.7,0.3c0.2,0.2,0.3,0.4,0.3,0.7
		c0,0.3-0.1,0.5-0.3,0.7c-0.2,0.2-0.4,0.3-0.7,0.3c-0.3,0-0.5-0.1-0.7-0.3c-0.2-0.2-0.3-0.4-0.3-0.7c0-0.3,0.1-0.5,0.3-0.7
		C294.3,37.2,294.5,37.1,294.8,37.1L294.8,37.1z M295.7,39.9v4.5c0,0.4,0,0.7,0.1,0.8c0.1,0.1,0.3,0.2,0.6,0.2v0.2h-3.1v-0.2
		c0.3,0,0.4-0.1,0.6-0.2c0.1-0.1,0.1-0.3,0.1-0.7v-3.4c0-0.4,0-0.7-0.1-0.8c-0.1-0.1-0.3-0.2-0.5-0.2v-0.2H295.7L295.7,39.9z"/>
	<path fill="#FFFFFF" d="M299.1,39.9v0.7c0.3-0.3,0.6-0.6,0.8-0.7c0.3-0.1,0.6-0.2,0.9-0.2c0.4,0,0.7,0.1,0.9,0.3
		c0.2,0.2,0.4,0.5,0.5,0.8c0.1,0.2,0.1,0.7,0.1,1.3v2.2c0,0.4,0,0.7,0.1,0.8c0.1,0.1,0.2,0.2,0.5,0.2v0.2h-2.9v-0.2
		c0.2,0,0.4-0.1,0.5-0.3c0.1-0.1,0.1-0.4,0.1-0.8v-2.6c0-0.5,0-0.8-0.1-0.9c0-0.1-0.1-0.2-0.2-0.3c-0.1-0.1-0.2-0.1-0.3-0.1
		c-0.4,0-0.7,0.3-1,0.8v3.1c0,0.4,0,0.7,0.1,0.8c0.1,0.1,0.2,0.2,0.4,0.2v0.2h-2.9v-0.2c0.2,0,0.4-0.1,0.5-0.2
		c0.1-0.1,0.1-0.4,0.1-0.8v-3.2c0-0.4,0-0.7-0.1-0.8c-0.1-0.1-0.2-0.2-0.5-0.2v-0.2H299.1L299.1,39.9z"/>
	<path fill-rule="evenodd" clip-rule="evenodd" fill="#FFFFFF" d="M307.9,42.6h-3.1c0,0.8,0.2,1.4,0.6,1.8c0.3,0.3,0.6,0.5,1,0.5
		c0.2,0,0.5-0.1,0.7-0.2c0.2-0.1,0.4-0.4,0.6-0.7l0.2,0.1c-0.3,0.6-0.7,1.1-1,1.4c-0.4,0.3-0.8,0.4-1.3,0.4c-0.9,0-1.5-0.3-1.9-1
		c-0.4-0.5-0.5-1.2-0.5-2c0-1,0.3-1.7,0.8-2.3c0.5-0.6,1.1-0.9,1.8-0.9c0.6,0,1.1,0.2,1.5,0.7C307.6,40.9,307.9,41.6,307.9,42.6
		L307.9,42.6z M306.4,42.2c0-0.7,0-1.1-0.1-1.4c-0.1-0.2-0.2-0.4-0.3-0.6c-0.1-0.1-0.2-0.1-0.3-0.1c-0.2,0-0.4,0.1-0.5,0.3
		c-0.2,0.4-0.4,0.9-0.4,1.5v0.2H306.4L306.4,42.2z"/>
	<path fill="#FFFFFF" d="M310.6,37.8v2.1h1.4v0.6h-1.4v3.5c0,0.3,0,0.5,0,0.6c0,0.1,0.1,0.2,0.2,0.2c0.1,0.1,0.1,0.1,0.2,0.1
		c0.3,0,0.5-0.2,0.8-0.6l0.2,0.1c-0.3,0.8-0.9,1.2-1.6,1.2c-0.4,0-0.7-0.1-0.9-0.3c-0.2-0.2-0.4-0.4-0.5-0.7c0-0.1-0.1-0.5-0.1-1.1
		v-3.1h-0.7v-0.2c0.5-0.4,1-0.7,1.3-1.1c0.4-0.4,0.7-0.8,1-1.3H310.6L310.6,37.8z"/>
</g>
</svg>
